<svg width="1500" height="1000" viewBox="0 0 1500 1000" xmlns="http://www.w3.org/2000/svg">
  <rect width="1500" height="1000" fill="#ffffff"/>
  <path d="M 750 310
           C 690 250, 550 240, 460 330
           C 350 440, 370 660, 470 770
           C 570 880, 690 870, 750 820
           C 810 870, 930 880, 1030 770
           C 1130 660, 1150 440, 1040 330
           C 950 240, 810 250, 750 310 Z"
        fill="#fef9c3" stroke="#dc2626" stroke-width="10"/>
  <path d="M 750 315 C 725 240, 740 200, 775 165" fill="none" stroke="#78350f" stroke-width="14" stroke-linecap="round"/>
  <ellipse cx="750" cy="585" rx="60" ry="85" fill="none" stroke="#a16207" stroke-width="5"/>
  <ellipse cx="732" cy="585" rx="14" ry="30" fill="#78350f"/>
  <ellipse cx="768" cy="585" rx="14" ry="30" fill="#78350f"/>
  <line x1="750" y1="330" x2="750" y2="855" stroke="#9ca3af" stroke-width="5" stroke-dasharray="14 12"/>
  <circle cx="490" cy="480" r="16" fill="#a16207" opacity="0.55"/><circle cx="550" cy="560" r="20" fill="#a16207" opacity="0.55"/><circle cx="450" cy="600" r="17" fill="#a16207" opacity="0.55"/><circle cx="570" cy="440" r="21" fill="#a16207" opacity="0.55"/><circle cx="510" cy="680" r="21" fill="#a16207" opacity="0.55"/><circle cx="590" cy="640" r="17" fill="#a16207" opacity="0.55"/><circle cx="450" cy="400" r="19" fill="#a16207" opacity="0.55"/><circle cx="620" cy="520" r="17" fill="#a16207" opacity="0.55"/><circle cx="540" cy="770" r="18" fill="#a16207" opacity="0.55"/><circle cx="450" cy="730" r="22" fill="#a16207" opacity="0.55"/>
  <text x="390" y="110" font-family="Helvetica, Arial, sans-serif" font-size="42" font-weight="bold" text-anchor="middle" fill="#1f2937">Bez limuna</text>
  <text x="390" y="165" font-family="Helvetica, Arial, sans-serif" font-size="30" text-anchor="middle" fill="#a16207">Kisik uzrokuje tamnjenje</text>
  <text x="1110" y="110" font-family="Helvetica, Arial, sans-serif" font-size="42" font-weight="bold" text-anchor="middle" fill="#1f2937">S limunom</text>
  <text x="1110" y="165" font-family="Helvetica, Arial, sans-serif" font-size="30" text-anchor="middle" fill="#16a34a">Limunov sok sprječava tamnjenje</text></svg>