<svg width="1500" height="1000" viewBox="0 0 1500 1000" xmlns="http://www.w3.org/2000/svg">
  <rect width="1500" height="1000" fill="#ffffff"/>
  
  <rect x="75" y="350" width="190" height="130" rx="10" fill="#e0e7ff" stroke="#1f2937" stroke-width="5"/>
  <rect x="92" y="367" width="156" height="96" rx="4" fill="#ffffff" stroke="#9ca3af" stroke-width="3"/>
  <rect x="152" y="480" width="36" height="26" fill="#9ca3af"/>
  <rect x="108" y="506" width="124" height="14" rx="7" fill="#d1d5db" stroke="#9ca3af" stroke-width="2"/>
  <text x="170" y="570" font-family="Helvetica, Arial, sans-serif" font-size="32" font-weight="bold" text-anchor="middle" fill="#1f2937">Pošiljatelj</text>
  
  <path d="M 386 185 h 46 l 22 22 v 68 h -68 Z" fill="#ffffff" stroke="#1f2937" stroke-width="4"/>
  <path d="M 432 185 v 22 h 22" fill="none" stroke="#1f2937" stroke-width="4"/>
  <line x1="398" y1="218" x2="442" y2="218" stroke="#9ca3af" stroke-width="4"/><line x1="398" y1="234" x2="442" y2="234" stroke="#9ca3af" stroke-width="4"/><line x1="398" y1="250" x2="442" y2="250" stroke="#9ca3af" stroke-width="4"/><line x1="398" y1="266" x2="442" y2="266" stroke="#9ca3af" stroke-width="4"/>
  <text x="420" y="330" font-family="Helvetica, Arial, sans-serif" font-size="28" font-weight="bold" text-anchor="middle" fill="#4f46e5">Izvorni tekst</text>
  <line x1="280" y1="430" x2="480" y2="430" stroke="#1f2937" stroke-width="6"/>
    <g transform="rotate(0 480 430)">
    <path d="M 469 419 L 480 430 L 469 441" fill="none"
          stroke="#1f2937" stroke-width="6" stroke-linecap="round" stroke-linejoin="round"/></g>
  
  <path d="M 542 392 v -30 a 38 38 0 0 1 76 0 v 30"
        fill="none" stroke="#1f2937" stroke-width="11" stroke-linecap="round"/>
  <rect x="522" y="392" width="116" height="96" rx="14" fill="#c7d2fe" stroke="#1f2937" stroke-width="5"/>
  <circle cx="580" cy="434" r="11" fill="#1f2937"/>
  <rect x="576" y="438" width="8" height="24" fill="#1f2937"/>
  <text x="580" y="545" font-family="Helvetica, Arial, sans-serif" font-size="32" font-weight="bold" text-anchor="middle" fill="#1f2937">Šifriranje</text>
  
  <path d="M 716 185 h 46 l 22 22 v 68 h -68 Z" fill="#ffffff" stroke="#1f2937" stroke-width="4"/>
  <path d="M 762 185 v 22 h 22" fill="none" stroke="#1f2937" stroke-width="4"/>
  <line x1="728" y1="218" x2="772" y2="218" stroke="#9ca3af" stroke-width="4"/><line x1="728" y1="234" x2="772" y2="234" stroke="#9ca3af" stroke-width="4"/><line x1="728" y1="250" x2="772" y2="250" stroke="#9ca3af" stroke-width="4"/><line x1="728" y1="266" x2="772" y2="266" stroke="#9ca3af" stroke-width="4"/>
  <path d="M 732 248 h 36 v 20 h -36 Z" fill="#fbbf24" stroke="#1f2937" stroke-width="3"/>
  <text x="750" y="330" font-family="Helvetica, Arial, sans-serif" font-size="28" font-weight="bold" text-anchor="middle" fill="#4f46e5">Šifrirani tekst</text>
  <line x1="680" y1="430" x2="880" y2="430" stroke="#1f2937" stroke-width="6"/>
    <g transform="rotate(0 880 430)">
    <path d="M 869 419 L 880 430 L 869 441" fill="none"
          stroke="#1f2937" stroke-width="6" stroke-linecap="round" stroke-linejoin="round"/></g>
  
  <path d="M 942 392 v -30 a 38 38 0 0 1 76 0 "
        fill="none" stroke="#1f2937" stroke-width="11" stroke-linecap="round"/>
  <rect x="922" y="392" width="116" height="96" rx="14" fill="#fecaca" stroke="#1f2937" stroke-width="5"/>
  <circle cx="980" cy="434" r="11" fill="#1f2937"/>
  <rect x="976" y="438" width="8" height="24" fill="#1f2937"/>
  <text x="980" y="545" font-family="Helvetica, Arial, sans-serif" font-size="32" font-weight="bold" text-anchor="middle" fill="#1f2937">Dešifriranje</text>
  
  <path d="M 1056 185 h 46 l 22 22 v 68 h -68 Z" fill="#ffffff" stroke="#1f2937" stroke-width="4"/>
  <path d="M 1102 185 v 22 h 22" fill="none" stroke="#1f2937" stroke-width="4"/>
  <line x1="1068" y1="218" x2="1112" y2="218" stroke="#9ca3af" stroke-width="4"/><line x1="1068" y1="234" x2="1112" y2="234" stroke="#9ca3af" stroke-width="4"/><line x1="1068" y1="250" x2="1112" y2="250" stroke="#9ca3af" stroke-width="4"/><line x1="1068" y1="266" x2="1112" y2="266" stroke="#9ca3af" stroke-width="4"/>
  <text x="1090" y="330" font-family="Helvetica, Arial, sans-serif" font-size="28" font-weight="bold" text-anchor="middle" fill="#4f46e5">Izvorni tekst</text>
  <line x1="1080" y1="430" x2="1230" y2="430" stroke="#1f2937" stroke-width="6"/>
    <g transform="rotate(0 1230 430)">
    <path d="M 1219 419 L 1230 430 L 1219 441" fill="none"
          stroke="#1f2937" stroke-width="6" stroke-linecap="round" stroke-linejoin="round"/></g>
  
  <rect x="1245" y="350" width="190" height="130" rx="10" fill="#e0e7ff" stroke="#1f2937" stroke-width="5"/>
  <rect x="1262" y="367" width="156" height="96" rx="4" fill="#ffffff" stroke="#9ca3af" stroke-width="3"/>
  <rect x="1322" y="480" width="36" height="26" fill="#9ca3af"/>
  <rect x="1278" y="506" width="124" height="14" rx="7" fill="#d1d5db" stroke="#9ca3af" stroke-width="2"/>
  <text x="1340" y="570" font-family="Helvetica, Arial, sans-serif" font-size="32" font-weight="bold" text-anchor="middle" fill="#1f2937">Primatelj</text>
  
  <circle cx="535" cy="760" r="26" fill="none" stroke="#b45309" stroke-width="10"/>
  <line x1="561" y1="760" x2="640" y2="760" stroke="#b45309" stroke-width="10" stroke-linecap="round"/>
  <line x1="610" y1="760" x2="610" y2="780" stroke="#b45309" stroke-width="9" stroke-linecap="round"/>
  <line x1="632" y1="760" x2="632" y2="784" stroke="#b45309" stroke-width="9" stroke-linecap="round"/>
  <text x="580" y="830" font-family="Helvetica, Arial, sans-serif" font-size="30" font-weight="bold" text-anchor="middle" fill="#1f2937">Javni ključ</text>
  <line x1="580" y1="700" x2="580" y2="590" stroke="#b45309" stroke-width="6"/>
    <g transform="rotate(-90 580 590)">
    <path d="M 569 579 L 580 590 L 569 601" fill="none"
          stroke="#b45309" stroke-width="6" stroke-linecap="round" stroke-linejoin="round"/></g>
  
  <circle cx="935" cy="760" r="26" fill="none" stroke="#b45309" stroke-width="10"/>
  <line x1="961" y1="760" x2="1040" y2="760" stroke="#b45309" stroke-width="10" stroke-linecap="round"/>
  <line x1="1010" y1="760" x2="1010" y2="780" stroke="#b45309" stroke-width="9" stroke-linecap="round"/>
  <line x1="1032" y1="760" x2="1032" y2="784" stroke="#b45309" stroke-width="9" stroke-linecap="round"/>
  <text x="980" y="830" font-family="Helvetica, Arial, sans-serif" font-size="30" font-weight="bold" text-anchor="middle" fill="#1f2937">Privatni ključ</text>
  <line x1="980" y1="700" x2="980" y2="590" stroke="#b45309" stroke-width="6"/>
    <g transform="rotate(-90 980 590)">
    <path d="M 969 579 L 980 590 L 969 601" fill="none"
          stroke="#b45309" stroke-width="6" stroke-linecap="round" stroke-linejoin="round"/></g></svg>