<svg viewBox="0 0 1600 900" xmlns="http://www.w3.org/2000/svg">
  <defs>
    <linearGradient id="bg" x1="0" y1="0" x2="0" y2="1">
      <stop offset="0" stop-color="#f7f8ff"/>
      <stop offset="1" stop-color="#eef2ff"/>
    </linearGradient>
    <linearGradient id="bar" x1="0" y1="0" x2="0" y2="1">
      <stop offset="0" stop-color="#4f46e5"/>
      <stop offset="1" stop-color="#3730a3"/>
    </linearGradient>
  </defs>

  <rect x="0" y="0" width="1600" height="900" fill="url(#bg)"/>

  <!-- soft decorative bubbles -->
  <circle cx="200" cy="150" r="70" fill="#c7d2fe" opacity="0.35"/>
  <circle cx="1420" cy="120" r="46" fill="#c7d2fe" opacity="0.35"/>
  <circle cx="1500" cy="300" r="26" fill="#c7d2fe" opacity="0.5"/>

  <!-- ground line -->
  <rect x="100" y="792" width="1400" height="6" rx="3" fill="#c7d2fe"/>

  
    <g>
      <rect x="130.0" y="696.0" width="116.0" height="96.0"
            rx="16" fill="url(#bar)"/>
      <rect x="130.0" y="696.0" width="116.0" height="18"
            rx="9" fill="#ffffff" opacity="0.28"/>
      <text x="188.0" y="752.0" font-family="Helvetica, Arial, sans-serif"
            font-size="42" font-weight="700" fill="#ffffff" text-anchor="middle">5</text>
    </g>
    <g>
      <rect x="266.0" y="640.0" width="116.0" height="152.0"
            rx="16" fill="url(#bar)"/>
      <rect x="266.0" y="640.0" width="116.0" height="18"
            rx="9" fill="#ffffff" opacity="0.28"/>
      <text x="324.0" y="696.0" font-family="Helvetica, Arial, sans-serif"
            font-size="42" font-weight="700" fill="#ffffff" text-anchor="middle">8</text>
    </g>
    <g>
      <rect x="402.0" y="584.0" width="116.0" height="208.0"
            rx="16" fill="url(#bar)"/>
      <rect x="402.0" y="584.0" width="116.0" height="18"
            rx="9" fill="#ffffff" opacity="0.28"/>
      <text x="460.0" y="640.0" font-family="Helvetica, Arial, sans-serif"
            font-size="42" font-weight="700" fill="#ffffff" text-anchor="middle">12</text>
    </g>
    <g>
      <rect x="538.0" y="528.0" width="116.0" height="264.0"
            rx="16" fill="url(#bar)"/>
      <rect x="538.0" y="528.0" width="116.0" height="18"
            rx="9" fill="#ffffff" opacity="0.28"/>
      <text x="596.0" y="584.0" font-family="Helvetica, Arial, sans-serif"
            font-size="42" font-weight="700" fill="#ffffff" text-anchor="middle">19</text>
    </g>
    <g>
      <rect x="674.0" y="472.0" width="116.0" height="320.0"
            rx="16" fill="url(#bar)"/>
      <rect x="674.0" y="472.0" width="116.0" height="18"
            rx="9" fill="#ffffff" opacity="0.28"/>
      <text x="732.0" y="528.0" font-family="Helvetica, Arial, sans-serif"
            font-size="42" font-weight="700" fill="#ffffff" text-anchor="middle">26</text>
    </g>
    <g>
      <rect x="810.0" y="416.0" width="116.0" height="376.0"
            rx="16" fill="url(#bar)"/>
      <rect x="810.0" y="416.0" width="116.0" height="18"
            rx="9" fill="#ffffff" opacity="0.28"/>
      <text x="868.0" y="472.0" font-family="Helvetica, Arial, sans-serif"
            font-size="42" font-weight="700" fill="#ffffff" text-anchor="middle">37</text>
    </g>
    <g>
      <rect x="946.0" y="360.0" width="116.0" height="432.0"
            rx="16" fill="url(#bar)"/>
      <rect x="946.0" y="360.0" width="116.0" height="18"
            rx="9" fill="#ffffff" opacity="0.28"/>
      <text x="1004.0" y="416.0" font-family="Helvetica, Arial, sans-serif"
            font-size="42" font-weight="700" fill="#ffffff" text-anchor="middle">46</text>
    </g>
    <g>
      <rect x="1082.0" y="304.0" width="116.0" height="488.0"
            rx="16" fill="url(#bar)"/>
      <rect x="1082.0" y="304.0" width="116.0" height="18"
            rx="9" fill="#ffffff" opacity="0.28"/>
      <text x="1140.0" y="360.0" font-family="Helvetica, Arial, sans-serif"
            font-size="42" font-weight="700" fill="#ffffff" text-anchor="middle">55</text>
    </g>
    <g>
      <rect x="1218.0" y="248.0" width="116.0" height="544.0"
            rx="16" fill="url(#bar)"/>
      <rect x="1218.0" y="248.0" width="116.0" height="18"
            rx="9" fill="#ffffff" opacity="0.28"/>
      <text x="1276.0" y="304.0" font-family="Helvetica, Arial, sans-serif"
            font-size="42" font-weight="700" fill="#ffffff" text-anchor="middle">64</text>
    </g>
    <g>
      <rect x="1354.0" y="192.0" width="116.0" height="600.0"
            rx="16" fill="url(#bar)"/>
      <rect x="1354.0" y="192.0" width="116.0" height="18"
            rx="9" fill="#ffffff" opacity="0.28"/>
      <text x="1412.0" y="248.0" font-family="Helvetica, Arial, sans-serif"
            font-size="42" font-weight="700" fill="#ffffff" text-anchor="middle">75</text>
    </g>

  <!-- progression path -->
  <path d="M 188.0 650.0 L 324.0 594.0 L 460.0 538.0 L 596.0 482.0 L 732.0 426.0 L 868.0 370.0 L 1004.0 314.0 L 1140.0 258.0 L 1276.0 202.0 L 1412.0 146.0" fill="none" stroke="#4f46e5" stroke-width="4"
        stroke-linecap="round" stroke-dasharray="2 14" opacity="0.55"/>

  
    <g>
      <circle cx="188.0" cy="650.0" r="34" fill="#ffffff"
              stroke="#4f46e5" stroke-width="4"/>
      <text x="188.0" y="662.0" font-family="Helvetica, Arial, sans-serif"
            font-size="34" font-weight="700" fill="#3730a3" text-anchor="middle">1</text>
    </g>
    <g>
      <circle cx="460.0" cy="538.0" r="34" fill="#ffffff"
              stroke="#4f46e5" stroke-width="4"/>
      <text x="460.0" y="550.0" font-family="Helvetica, Arial, sans-serif"
            font-size="34" font-weight="700" fill="#3730a3" text-anchor="middle">3</text>
    </g>
    <g>
      <circle cx="596.0" cy="482.0" r="34" fill="#ffffff"
              stroke="#4f46e5" stroke-width="4"/>
      <text x="596.0" y="494.0" font-family="Helvetica, Arial, sans-serif"
            font-size="34" font-weight="700" fill="#3730a3" text-anchor="middle">4</text>
    </g>
    <g>
      <circle cx="732.0" cy="426.0" r="34" fill="#ffffff"
              stroke="#4f46e5" stroke-width="4"/>
      <text x="732.0" y="438.0" font-family="Helvetica, Arial, sans-serif"
            font-size="34" font-weight="700" fill="#3730a3" text-anchor="middle">5</text>
    </g>
    <g>
      <circle cx="868.0" cy="370.0" r="34" fill="#ffffff"
              stroke="#4f46e5" stroke-width="4"/>
      <text x="868.0" y="382.0" font-family="Helvetica, Arial, sans-serif"
            font-size="34" font-weight="700" fill="#3730a3" text-anchor="middle">6</text>
    </g>
    <g>
      <circle cx="1004.0" cy="314.0" r="34" fill="#ffffff"
              stroke="#4f46e5" stroke-width="4"/>
      <text x="1004.0" y="326.0" font-family="Helvetica, Arial, sans-serif"
            font-size="34" font-weight="700" fill="#3730a3" text-anchor="middle">7</text>
    </g>
    <g>
      <circle cx="1140.0" cy="258.0" r="34" fill="#ffffff"
              stroke="#4f46e5" stroke-width="4"/>
      <text x="1140.0" y="270.0" font-family="Helvetica, Arial, sans-serif"
            font-size="34" font-weight="700" fill="#3730a3" text-anchor="middle">8</text>
    </g>
    <g>
      <circle cx="1276.0" cy="202.0" r="34" fill="#ffffff"
              stroke="#4f46e5" stroke-width="4"/>
      <text x="1276.0" y="214.0" font-family="Helvetica, Arial, sans-serif"
            font-size="34" font-weight="700" fill="#3730a3" text-anchor="middle">9</text>
    </g>
    <g>
      <circle cx="1412.0" cy="146.0" r="34" fill="#ffffff"
              stroke="#4f46e5" stroke-width="4"/>
      <text x="1412.0" y="158.0" font-family="Helvetica, Arial, sans-serif"
            font-size="34" font-weight="700" fill="#3730a3" text-anchor="middle">10</text>
    </g>

  <!-- baby crawling up the steps -->
  
    <g transform="translate(318.0,642.0) scale(0.92)">
      <!-- limbs behind the body -->
      <path d="M -26,-40 q -20,8 -22,38" fill="none" stroke="#ea7c1b" stroke-width="26" stroke-linecap="round"/>
      <path d="M 16,-50 q -8,26 -4,48" fill="none" stroke="#e0a982" stroke-width="16" stroke-linecap="round"/>
      <circle cx="12" cy="-2" r="10" fill="#e0a982"/>
      <!-- onesie torso, arched back -->
      <path d="M 34,-50 C 32,-92 -36,-96 -56,-56 C -64,-38 -56,-24 -40,-30 C -14,-40 16,-42 32,-42 Z" fill="#fb923c"/>
      <!-- front leg + foot -->
      <path d="M -36,-38 q 22,4 32,36" fill="none" stroke="#fb923c" stroke-width="28" stroke-linecap="round"/>
      <ellipse cx="-2" cy="-3" rx="13" ry="9" fill="#f4c6a1"/>
      <!-- front arm + hand -->
      <path d="M 30,-48 q 16,24 22,46" fill="none" stroke="#fb923c" stroke-width="19" stroke-linecap="round"/>
      <circle cx="52" cy="-3" r="11" fill="#f4c6a1"/>
      <!-- head -->
      <circle cx="50" cy="-72" r="30" fill="#f4c6a1"/>
      <circle cx="34" cy="-68" r="7" fill="#f4c6a1"/>
      <!-- hair -->
      <path d="M 26,-84 q 24,-24 48,-4 q -12,-10 -26,-8 q -16,0 -22,12 Z" fill="#7c5230"/>
      <path d="M 50,-100 q 8,-3 9,7 q -7,2 -9,-7 Z" fill="#7c5230"/>
      <!-- face -->
      <circle cx="58" cy="-64" r="6" fill="#fca5a5" opacity="0.85"/>
      <circle cx="56" cy="-75" r="3.4" fill="#3b2a20"/>
      <path d="M 53,-62 q 7,6 13,0" fill="none" stroke="#3b2a20" stroke-width="2.4" stroke-linecap="round"/>
    </g>

  <!-- summit star -->
  <polygon points="1412.0,38.0 1419.6,57.5 1440.5,58.7 1424.4,72.0 1429.6,92.3 1412.0,81.0 1394.4,92.3 1399.6,72.0 1383.5,58.7 1404.4,57.5" fill="#facc15"
           stroke="#eab308" stroke-width="3" stroke-linejoin="round"/>
</svg>