<svg width="1500" height="1000" viewBox="0 0 1500 1000" xmlns="http://www.w3.org/2000/svg">
  <rect width="1500" height="1000" fill="#ffffff"/>
  <rect x="120" y="250" width="1260" height="500" rx="24" fill="#dbeafe" stroke="#60a5fa" stroke-width="5"/>
  <circle cx="173.0432358197868" cy="342.9245553025976" r="22" fill="#4ade80" stroke="#16a34a" stroke-width="4"/><circle cx="423.9959845226258" cy="578.6406211135909" r="22" fill="#4ade80" stroke="#16a34a" stroke-width="4"/><circle cx="305.5757698183879" cy="470.04302457906306" r="22" fill="#4ade80" stroke="#16a34a" stroke-width="4"/><circle cx="291.2204844551161" cy="408.7723187892698" r="22" fill="#4ade80" stroke="#16a34a" stroke-width="4"/><circle cx="313.8646570267156" cy="590.0341732613742" r="22" fill="#4ade80" stroke="#16a34a" stroke-width="4"/><circle cx="237.03204586636275" cy="377.7008946589194" r="22" fill="#4ade80" stroke="#16a34a" stroke-width="4"/><circle cx="368.66337050683796" cy="511.80894191376865" r="22" fill="#4ade80" stroke="#16a34a" stroke-width="4"/><circle cx="221.2556876288727" cy="456.14467956358567" r="22" fill="#4ade80" stroke="#16a34a" stroke-width="4"/><circle cx="246.24430785886943" cy="517.8536244435236" r="22" fill="#4ade80" stroke="#16a34a" stroke-width="4"/><circle cx="247.0458645420149" cy="681.840058658272" r="22" fill="#4ade80" stroke="#16a34a" stroke-width="4"/><circle cx="234.3587345071137" cy="644.7784503549337" r="22" fill="#4ade80" stroke="#16a34a" stroke-width="4"/><circle cx="219.60584443062544" cy="373.1532328459434" r="22" fill="#4ade80" stroke="#16a34a" stroke-width="4"/><circle cx="210.2074478380382" cy="427.6519488473423" r="22" fill="#4ade80" stroke="#16a34a" stroke-width="4"/><circle cx="312.4543722067028" cy="601.8932671751827" r="22" fill="#4ade80" stroke="#16a34a" stroke-width="4"/><circle cx="189.37470342963934" cy="657.7880619559437" r="22" fill="#4ade80" stroke="#16a34a" stroke-width="4"/><circle cx="313.9647944737226" cy="550.0011885445565" r="22" fill="#4ade80" stroke="#16a34a" stroke-width="4"/><circle cx="346.82363600935787" cy="677.4161903979257" r="22" fill="#4ade80" stroke="#16a34a" stroke-width="4"/><circle cx="332.3389674862847" cy="660.8457982330583" r="22" fill="#4ade80" stroke="#16a34a" stroke-width="4"/><circle cx="385.18340589944273" cy="334.7920353477821" r="22" fill="#4ade80" stroke="#16a34a" stroke-width="4"/><circle cx="215.4848022153601" cy="452.08297522971407" r="22" fill="#4ade80" stroke="#16a34a" stroke-width="4"/><circle cx="280.58208835776895" cy="327.4651622842066" r="22" fill="#4ade80" stroke="#16a34a" stroke-width="4"/><circle cx="192.90762116666883" cy="604.1658666054718" r="22" fill="#4ade80" stroke="#16a34a" stroke-width="4"/><circle cx="265.9320193482563" cy="477.8848103620112" r="22" fill="#4ade80" stroke="#16a34a" stroke-width="4"/><circle cx="291.8522833334282" cy="670.1018331642263" r="22" fill="#4ade80" stroke="#16a34a" stroke-width="4"/><circle cx="352.85308234393597" cy="574.6700629894622" r="22" fill="#4ade80" stroke="#16a34a" stroke-width="4"/><circle cx="255.96846029628068" cy="451.84377362020314" r="22" fill="#4ade80" stroke="#16a34a" stroke-width="4"/><circle cx="513.3098891749978" cy="376.6526410426013" r="22" fill="#4ade80" stroke="#16a34a" stroke-width="4"/><circle cx="699.1283683665097" cy="442.84943693317473" r="22" fill="#4ade80" stroke="#16a34a" stroke-width="4"/><circle cx="525.6901264563203" cy="551.2730616447516" r="22" fill="#4ade80" stroke="#16a34a" stroke-width="4"/><circle cx="560.8250229433179" cy="345.2709669317119" r="22" fill="#4ade80" stroke="#16a34a" stroke-width="4"/><circle cx="644.2209065146744" cy="652.4801202653907" r="22" fill="#4ade80" stroke="#16a34a" stroke-width="4"/><circle cx="611.4894343167543" cy="619.3021335476078" r="22" fill="#4ade80" stroke="#16a34a" stroke-width="4"/><circle cx="637.2586516477168" cy="651.9573039677925" r="22" fill="#4ade80" stroke="#16a34a" stroke-width="4"/><circle cx="827.453246191144" cy="508.97872680798173" r="22" fill="#4ade80" stroke="#16a34a" stroke-width="4"/><circle cx="997.7331284433603" cy="617.3194727161899" r="22" fill="#4ade80" stroke="#16a34a" stroke-width="4"/><circle cx="1097.3594856262207" cy="601.3872426003218" r="22" fill="#4ade80" stroke="#16a34a" stroke-width="4"/>
  <line x1="880" y1="370" x2="1150" y2="370" stroke="#4f46e5" stroke-width="10"/>
    <g transform="rotate(0 1150 370)">
    <path d="M 1138 358 L 1150 370 L 1138 382" fill="none"
          stroke="#4f46e5" stroke-width="10" stroke-linecap="round" stroke-linejoin="round"/></g>
  <line x1="930" y1="500" x2="1200" y2="500" stroke="#4f46e5" stroke-width="10"/>
    <g transform="rotate(0 1200 500)">
    <path d="M 1188 488 L 1200 500 L 1188 512" fill="none"
          stroke="#4f46e5" stroke-width="10" stroke-linecap="round" stroke-linejoin="round"/></g>
  <line x1="880" y1="630" x2="1150" y2="630" stroke="#4f46e5" stroke-width="10"/>
    <g transform="rotate(0 1150 630)">
    <path d="M 1138 618 L 1150 630 L 1138 642" fill="none"
          stroke="#4f46e5" stroke-width="10" stroke-linecap="round" stroke-linejoin="round"/></g>
  <text x="200" y="160" font-family="Helvetica, Arial, sans-serif" font-size="36" font-weight="bold" fill="#1f2937">Solute</text>
  <line x1="250" y1="175" x2="305.5757698183879" y2="444.04302457906306" stroke="#1f2937" stroke-width="4"/>
  <text x="330" y="860" font-family="Helvetica, Arial, sans-serif" font-size="36" font-weight="bold" text-anchor="middle" fill="#1f2937">High concentration</text>
  <line x1="560" y1="848" x2="940" y2="848" stroke="#4f46e5" stroke-width="8"/>
    <g transform="rotate(0 940 848)">
    <path d="M 928 836 L 940 848 L 928 860" fill="none"
          stroke="#4f46e5" stroke-width="8" stroke-linecap="round" stroke-linejoin="round"/></g>
  <text x="1170" y="860" font-family="Helvetica, Arial, sans-serif" font-size="36" font-weight="bold" text-anchor="middle" fill="#1f2937">Low concentration</text></svg>