<svg width="1500" height="1000" viewBox="0 0 1500 1000" xmlns="http://www.w3.org/2000/svg">
  <rect width="1500" height="1000" fill="#ffffff"/><path d="M 750 325 L 750 70 A 430 430 0 0 1 1054.0559159102154 195.9440840897846 L 873.7436867076458 376.2563132923542 A 175 175 0 0 0 750 325 Z"
        fill="#8b5cf6" stroke="#ffffff" stroke-width="5"/>
      <g transform="translate(838.7825563087008 285.65994845738146)"><circle cx="-12" cy="18" r="13" fill="#fff"/><rect x="-1" y="-26" width="7" height="44" fill="#fff"/><path d="M 6 -26 q 22 4 22 20 q -10 -8 -22 -6 Z" fill="#fff"/></g>
      <text x="878.1989498423051" y="199.50035660871896" font-family="Helvetica, Arial, sans-serif" font-size="27" font-weight="bold" text-anchor="middle" fill="#ffffff">Music Smart</text><path d="M 873.7436867076458 376.2563132923542 L 1054.0559159102154 195.9440840897846 A 430 430 0 0 1 1180 500 L 925 500 A 175 175 0 0 0 873.7436867076458 376.2563132923542 Z"
        fill="#ec4899" stroke="#ffffff" stroke-width="5"/>
      <g transform="translate(964.3400515426185 411.2174436912992)"><circle cx="4" cy="-24" r="11" fill="#fff"/><g stroke="#fff" stroke-width="8" stroke-linecap="round" fill="none"><line x1="0" y1="-12" x2="-6" y2="14"/><line x1="-6" y1="14" x2="-22" y2="30"/><line x1="-6" y1="14" x2="14" y2="26"/><line x1="0" y1="-6" x2="-20" y2="2"/><line x1="0" y1="-6" x2="20" y2="-14"/></g></g>
      <text x="1059.499643391281" y="380.80105015769493" font-family="Helvetica, Arial, sans-serif" font-size="27" font-weight="bold" text-anchor="middle" fill="#ffffff">Body Smart</text><path d="M 925 500 L 1180 500 A 430 430 0 0 1 1054.0559159102154 804.0559159102154 L 873.7436867076458 623.7436867076458 A 175 175 0 0 0 925 500 Z"
        fill="#f97316" stroke="#ffffff" stroke-width="5"/>
      <g transform="translate(964.3400515426185 588.7825563087008)"><circle cx="-14" cy="-14" r="12" fill="#fff"/><path d="M -32 28 a 18 18 0 0 1 36 0 Z" fill="#fff"/><circle cx="16" cy="-10" r="10" fill="#fff"/><path d="M 1 28 a 15 15 0 0 1 30 0 Z" fill="#fff"/></g>
      <text x="1059.499643391281" y="637.1989498423051" font-family="Helvetica, Arial, sans-serif" font-size="27" font-weight="bold" text-anchor="middle" fill="#ffffff">People Smart</text><path d="M 873.7436867076458 623.7436867076458 L 1054.0559159102154 804.0559159102154 A 430 430 0 0 1 750 930 L 750 675 A 175 175 0 0 0 873.7436867076458 623.7436867076458 Z"
        fill="#eab308" stroke="#ffffff" stroke-width="5"/>
      <g transform="translate(838.7825563087008 714.3400515426185)"><path d="M -30 -14 q 15 -8 30 0 v 36 q -15 -8 -30 0 Z" fill="#fff"/><path d="M 30 -14 q -15 -8 -30 0 v 36 q 15 -8 30 0 Z" fill="#fff" opacity="0.85"/></g>
      <text x="878.1989498423051" y="818.4996433912811" font-family="Helvetica, Arial, sans-serif" font-size="27" font-weight="bold" text-anchor="middle" fill="#ffffff">Word Smart</text><path d="M 750 675 L 750 930 A 430 430 0 0 1 445.9440840897846 804.0559159102154 L 626.2563132923542 623.7436867076458 A 175 175 0 0 0 750 675 Z"
        fill="#22c55e" stroke="#ffffff" stroke-width="5"/>
      <g transform="translate(661.2174436912992 714.3400515426185)"><rect x="-22" y="-28" width="44" height="56" rx="6" fill="#fff"/><rect x="-14" y="-20" width="28" height="12" fill="#1f2937" opacity="0.35"/><g fill="#1f2937" opacity="0.35"><circle cx="-10" cy="6" r="4"/><circle cx="10" cy="6" r="4"/><circle cx="-10" cy="20" r="4"/><circle cx="10" cy="20" r="4"/></g></g>
      <text x="621.8010501576949" y="818.4996433912811" font-family="Helvetica, Arial, sans-serif" font-size="27" font-weight="bold" text-anchor="middle" fill="#ffffff">Logic Smart</text><path d="M 626.2563132923542 623.7436867076458 L 445.9440840897846 804.0559159102154 A 430 430 0 0 1 320 500.00000000000006 L 575 500 A 175 175 0 0 0 626.2563132923542 623.7436867076458 Z"
        fill="#14b8a6" stroke="#ffffff" stroke-width="5"/>
      <g transform="translate(535.6599484573815 588.7825563087008)"><path d="M 0 -28 C 26 -10, 26 14, 0 30 C -26 14, -26 -10, 0 -28 Z" fill="#fff"/><line x1="0" y1="-20" x2="0" y2="24" stroke="#1f2937" stroke-width="4" opacity="0.35"/></g>
      <text x="440.50035660871896" y="637.1989498423052" font-family="Helvetica, Arial, sans-serif" font-size="27" font-weight="bold" text-anchor="middle" fill="#ffffff">Nature Smart</text><path d="M 575 500 L 320 500.00000000000006 A 430 430 0 0 1 445.9440840897845 195.9440840897846 L 626.2563132923542 376.2563132923542 A 175 175 0 0 0 575 500 Z"
        fill="#3b82f6" stroke="#ffffff" stroke-width="5"/>
      <g transform="translate(535.6599484573815 411.2174436912992)"><circle cx="0" cy="-22" r="11" fill="#fff"/><g stroke="#fff" stroke-width="8" stroke-linecap="round"><line x1="0" y1="-8" x2="0" y2="16"/><line x1="0" y1="-4" x2="-20" y2="-20"/><line x1="0" y1="-4" x2="20" y2="-20"/><line x1="0" y1="16" x2="-12" y2="32"/><line x1="0" y1="16" x2="12" y2="32"/></g></g>
      <text x="440.5003566087189" y="380.80105015769493" font-family="Helvetica, Arial, sans-serif" font-size="27" font-weight="bold" text-anchor="middle" fill="#ffffff">Self Smart</text><path d="M 626.2563132923542 376.2563132923542 L 445.9440840897845 195.9440840897846 A 430 430 0 0 1 749.9999999999999 70 L 750 325 A 175 175 0 0 0 626.2563132923542 376.2563132923542 Z"
        fill="#6366f1" stroke="#ffffff" stroke-width="5"/>
      <g transform="translate(661.2174436912991 285.6599484573815)"><rect x="-28" y="-16" width="56" height="38" rx="7" fill="#fff"/><rect x="-10" y="-24" width="20" height="10" rx="3" fill="#fff"/><circle cx="0" cy="3" r="12" fill="#1f2937" opacity="0.35"/></g>
      <text x="621.8010501576947" y="199.50035660871902" font-family="Helvetica, Arial, sans-serif" font-size="27" font-weight="bold" text-anchor="middle" fill="#ffffff">Picture Smart</text>
  <circle cx="750" cy="500" r="163" fill="#ffffff" stroke="#cbd5e1" stroke-width="3"/>
  <text x="750" y="490" font-family="Helvetica, Arial, sans-serif" font-size="32" font-weight="bold" text-anchor="middle" fill="#4f46e5">MULTIPLE</text>
  <text x="750" y="534" font-family="Helvetica, Arial, sans-serif" font-size="32" font-weight="bold" text-anchor="middle" fill="#4f46e5">INTELLIGENCES</text></svg>