<svg width="1500" height="1000" viewBox="0 0 1500 1000" xmlns="http://www.w3.org/2000/svg">
  <rect width="1500" height="1000" fill="#ffffff"/>
  <defs>
    <linearGradient id="alu" x1="0" y1="0" x2="1" y2="0">
      <stop offset="0" stop-color="#94a3b8"/><stop offset="0.45" stop-color="#e2e8f0"/><stop offset="1" stop-color="#94a3b8"/>
    </linearGradient>
    <linearGradient id="hotcold" x1="0" y1="0" x2="1" y2="0">
      <stop offset="0" stop-color="#3b82f6"/><stop offset="1" stop-color="#dc2626"/>
    </linearGradient>
  </defs>
  <rect x="120" y="160" width="200" height="420" fill="#f1f5f9"/><circle cx="258.75991394370794" cy="187.31021556351334" r="11.105729733593762" fill="none" stroke="#cbd5e1" stroke-width="2.5"/><circle cx="145.187329698354" cy="474.15013437345624" r="11.330623760353774" fill="none" stroke="#cbd5e1" stroke-width="2.5"/><circle cx="217.6644051335752" cy="236.0730243716389" r="9.369306415086612" fill="none" stroke="#cbd5e1" stroke-width="2.5"/><circle cx="229.25887152180076" cy="249.18683571834117" r="7.752335935132578" fill="none" stroke="#cbd5e1" stroke-width="2.5"/><circle cx="257.62658083066344" cy="360.7843032972887" r="14.143588522216305" fill="none" stroke="#cbd5e1" stroke-width="2.5"/><circle cx="286.84010553732514" cy="300.1549718575552" r="13.2152325513307" fill="none" stroke="#cbd5e1" stroke-width="2.5"/><circle cx="182.46748416125774" cy="438.167607774958" r="11.737857197411358" fill="none" stroke="#cbd5e1" stroke-width="2.5"/><circle cx="278.38515728339553" cy="385.81905786320567" r="7.104453559033573" fill="none" stroke="#cbd5e1" stroke-width="2.5"/><circle cx="286.4143684990704" cy="294.91721663065255" r="15.431396275060251" fill="none" stroke="#cbd5e1" stroke-width="2.5"/><circle cx="267.4089844226837" cy="338.54979005549103" r="13.432156731374562" fill="none" stroke="#cbd5e1" stroke-width="2.5"/><circle cx="159.1624250859022" cy="317.6976212738082" r="13.504293885780498" fill="none" stroke="#cbd5e1" stroke-width="2.5"/><circle cx="132.25354466214776" cy="175.30890456959605" r="11.304782763589174" fill="none" stroke="#cbd5e1" stroke-width="2.5"/><circle cx="283.90129974111915" cy="410.77676093764603" r="13.138582666171715" fill="none" stroke="#cbd5e1" stroke-width="2.5"/><circle cx="270.39103323593736" cy="403.4066221350804" r="12.235931280767545" fill="none" stroke="#cbd5e1" stroke-width="2.5"/><circle cx="144.48173606395721" cy="319.4288834836334" r="11.7783767611254" fill="none" stroke="#cbd5e1" stroke-width="2.5"/><circle cx="279.5796177312732" cy="335.54230481758714" r="11.17569619929418" fill="none" stroke="#cbd5e1" stroke-width="2.5"/><circle cx="219.4298691265285" cy="398.06900047976524" r="13.984729580348358" fill="none" stroke="#cbd5e1" stroke-width="2.5"/><circle cx="282.5582219995558" cy="435.1824743486941" r="10.35060152458027" fill="none" stroke="#cbd5e1" stroke-width="2.5"/><circle cx="253.25617181509733" cy="449.14045717101544" r="11.196647608652711" fill="none" stroke="#cbd5e1" stroke-width="2.5"/><circle cx="304.26964204758406" cy="520.7767892330885" r="13.41355369030498" fill="none" stroke="#cbd5e1" stroke-width="2.5"/><circle cx="251.17329942435026" cy="549.2354285586625" r="13.886526458896697" fill="none" stroke="#cbd5e1" stroke-width="2.5"/><circle cx="142.01253269985318" cy="198.1961108110845" r="11.838335959473625" fill="none" stroke="#cbd5e1" stroke-width="2.5"/><circle cx="284.3289218582213" cy="308.55108965560794" r="11.861760003026575" fill="none" stroke="#cbd5e1" stroke-width="2.5"/><circle cx="183.02766651287675" cy="355.464064007625" r="11.9677891691681" fill="none" stroke="#cbd5e1" stroke-width="2.5"/><circle cx="233.69803960993886" cy="326.8782952670008" r="13.805876119760796" fill="none" stroke="#cbd5e1" stroke-width="2.5"/><circle cx="162.44735741242766" cy="549.2357803052291" r="12.78767242282629" fill="none" stroke="#cbd5e1" stroke-width="2.5"/><circle cx="264.11625550314784" cy="476.9119607312605" r="7.550011320505291" fill="none" stroke="#cbd5e1" stroke-width="2.5"/><circle cx="204.59592227637768" cy="233.24481057468802" r="13.216375918360427" fill="none" stroke="#cbd5e1" stroke-width="2.5"/><circle cx="268.2104709632695" cy="417.99164885561913" r="15.879724917700514" fill="none" stroke="#cbd5e1" stroke-width="2.5"/><circle cx="306.2940981797874" cy="560.2028898242861" r="12.245260973926634" fill="none" stroke="#cbd5e1" stroke-width="2.5"/><circle cx="288.02951726689935" cy="548.3318935111165" r="14.321883018827066" fill="none" stroke="#cbd5e1" stroke-width="2.5"/><circle cx="187.63290594145656" cy="419.78536272328347" r="15.495536773232743" fill="none" stroke="#cbd5e1" stroke-width="2.5"/><circle cx="200.80885763466358" cy="409.1507566059008" r="8.267514465376735" fill="none" stroke="#cbd5e1" stroke-width="2.5"/><circle cx="243.06172646582127" cy="388.7454840037972" r="9.307604155968875" fill="none" stroke="#cbd5e1" stroke-width="2.5"/><circle cx="287.09894404932857" cy="191.44678542856127" r="14.63393888506107" fill="none" stroke="#cbd5e1" stroke-width="2.5"/><circle cx="147.53905595839024" cy="340.0566596230492" r="15.005280409241095" fill="none" stroke="#cbd5e1" stroke-width="2.5"/><circle cx="137.11196437478065" cy="437.441037485376" r="7.92873438866809" fill="none" stroke="#cbd5e1" stroke-width="2.5"/><circle cx="182.68264065682888" cy="565.373362801969" r="11.71032493794337" fill="none" stroke="#cbd5e1" stroke-width="2.5"/><circle cx="163.6008477397263" cy="174.04283009842038" r="8.42177305626683" fill="none" stroke="#cbd5e1" stroke-width="2.5"/><circle cx="246.17987705394626" cy="421.54789561778307" r="14.449495506007224" fill="none" stroke="#cbd5e1" stroke-width="2.5"/><circle cx="253.2488682717085" cy="491.79123355075717" r="8.129471843829378" fill="none" stroke="#cbd5e1" stroke-width="2.5"/><circle cx="165.90764722973108" cy="222.64135915320367" r="12.482838760595769" fill="none" stroke="#cbd5e1" stroke-width="2.5"/>
    <rect x="120" y="160" width="200" height="420" fill="none" stroke="#1f2937" stroke-width="4"/>
    <text x="220" y="636" font-family="Helvetica, Arial, sans-serif" font-size="32" font-weight="bold" text-anchor="middle" fill="#1f2937">stiropor</text><rect x="390" y="160" width="200" height="420" fill="#b45309"/><path d="M 404 160 q -3.51036558393389 210 0 420" fill="none" stroke="#7c2d12" stroke-width="4"/><path d="M 431 160 q -1.5506907226517797 210 0 420" fill="none" stroke="#7c2d12" stroke-width="4"/><path d="M 458 160 q -4.563723998144269 210 0 420" fill="none" stroke="#7c2d12" stroke-width="4"/><path d="M 485 160 q 3.6309306416660547 210 0 420" fill="none" stroke="#7c2d12" stroke-width="4"/><path d="M 512 160 q -9.014692618511617 210 0 420" fill="none" stroke="#7c2d12" stroke-width="4"/><path d="M 539 160 q 8.113252213224769 210 0 420" fill="none" stroke="#7c2d12" stroke-width="4"/><path d="M 566 160 q -9.293444114737213 210 0 420" fill="none" stroke="#7c2d12" stroke-width="4"/>
    <rect x="390" y="160" width="200" height="420" fill="none" stroke="#1f2937" stroke-width="4"/>
    <text x="490" y="636" font-family="Helvetica, Arial, sans-serif" font-size="32" font-weight="bold" text-anchor="middle" fill="#1f2937">drvo</text><rect x="660" y="160" width="200" height="420" fill="#3b82f6"/><path d="M 660 190 q 50 -22 100 0 t 100 0" fill="none" stroke="#93c5fd" stroke-width="5"/><path d="M 660 240 q 50 -22 100 0 t 100 0" fill="none" stroke="#93c5fd" stroke-width="5"/><path d="M 660 290 q 50 -22 100 0 t 100 0" fill="none" stroke="#93c5fd" stroke-width="5"/><path d="M 660 340 q 50 -22 100 0 t 100 0" fill="none" stroke="#93c5fd" stroke-width="5"/><path d="M 660 390 q 50 -22 100 0 t 100 0" fill="none" stroke="#93c5fd" stroke-width="5"/><path d="M 660 440 q 50 -22 100 0 t 100 0" fill="none" stroke="#93c5fd" stroke-width="5"/><path d="M 660 490 q 50 -22 100 0 t 100 0" fill="none" stroke="#93c5fd" stroke-width="5"/><path d="M 660 540 q 50 -22 100 0 t 100 0" fill="none" stroke="#93c5fd" stroke-width="5"/>
    <rect x="660" y="160" width="200" height="420" fill="none" stroke="#1f2937" stroke-width="4"/>
    <text x="760" y="636" font-family="Helvetica, Arial, sans-serif" font-size="32" font-weight="bold" text-anchor="middle" fill="#1f2937">voda</text><rect x="930" y="160" width="200" height="420" fill="#d6d3d1"/><circle cx="972.6467403303832" cy="322.39039571769536" r="3.9902370730414987" fill="#78716c"/><circle cx="1039.6697044987231" cy="279.43007242679596" r="4.684282377362251" fill="#78716c"/><circle cx="1023.0755957504734" cy="483.96445342712104" r="3.3470018142834306" fill="#78716c"/><circle cx="1005.4003728860989" cy="569.6558712292463" r="2.315324829891324" fill="#78716c"/><circle cx="970.7656285157427" cy="217.69166710041463" r="5.471238587982953" fill="#a8a29e"/><circle cx="1093.7765153096989" cy="323.3460454829037" r="2.257873699069023" fill="#78716c"/><circle cx="984.9797710701823" cy="220.4398455992341" r="2.509533705189824" fill="#78716c"/><circle cx="979.5392644396052" cy="173.7460556346923" r="4.186962412670255" fill="#78716c"/><circle cx="1008.2672174395993" cy="557.7144647054374" r="5.577343577519059" fill="#a8a29e"/><circle cx="990.7149179652333" cy="298.0453328192234" r="3.120823667384684" fill="#78716c"/><circle cx="1080.1770437639207" cy="170.61450687237084" r="2.7770161274820566" fill="#78716c"/><circle cx="1121.2454932397231" cy="292.6299652457237" r="4.262359773740172" fill="#78716c"/><circle cx="1047.8039183141664" cy="497.8045889958739" r="2.0961061967536807" fill="#a8a29e"/><circle cx="994.9497530311346" cy="200.61981092952192" r="2.0570345893502235" fill="#78716c"/><circle cx="1064.1012688381597" cy="519.5816188789904" r="4.1651559909805655" fill="#a8a29e"/><circle cx="1099.777925808914" cy="423.1418777126819" r="5.480567508377135" fill="#a8a29e"/><circle cx="1049.0787048516795" cy="273.21574063040316" r="4.304325918667018" fill="#a8a29e"/><circle cx="1033.2573901917785" cy="247.27418646402657" r="2.6652009561657906" fill="#a8a29e"/><circle cx="975.6778054255992" cy="417.83128020726144" r="5.442049665376544" fill="#78716c"/><circle cx="1087.851360029541" cy="437.6603442374617" r="3.267809816636145" fill="#78716c"/><circle cx="1107.9936195323244" cy="464.78921584784985" r="3.787436293438077" fill="#a8a29e"/><circle cx="1015.1766663175076" cy="501.1270128209144" r="3.8038263749331236" fill="#78716c"/><circle cx="1081.8551127193496" cy="322.08303524553776" r="4.679596028290689" fill="#78716c"/><circle cx="1079.6713187312707" cy="349.2586478628218" r="4.746710814535618" fill="#a8a29e"/><circle cx="1101.3295252164826" cy="513.9752115216106" r="3.5999587224796414" fill="#78716c"/><circle cx="947.3490375503898" cy="249.0154305845499" r="4.7260685078799725" fill="#a8a29e"/><circle cx="1115.1050345180556" cy="272.84266638942063" r="4.871876020915806" fill="#78716c"/><circle cx="1097.8141539450735" cy="261.09624516777694" r="3.870579117909074" fill="#a8a29e"/><circle cx="1094.000420987606" cy="486.34013515897095" r="2.28765426017344" fill="#a8a29e"/><circle cx="979.8049977440387" cy="531.13332201913" r="5.4221116323024035" fill="#a8a29e"/><circle cx="1072.9793338449672" cy="335.0763958469033" r="2.277636014856398" fill="#78716c"/><circle cx="1045.9682708922774" cy="388.38731974363327" r="4.12266918644309" fill="#a8a29e"/><circle cx="947.7726494669914" cy="530.7856580596417" r="4.808302939869463" fill="#a8a29e"/><circle cx="1093.9730958659202" cy="547.3802580349147" r="5.9050545720383525" fill="#a8a29e"/><circle cx="1094.6757381064817" cy="179.5754046291113" r="3.7435665717348456" fill="#a8a29e"/><circle cx="954.5944565422833" cy="403.0787021648139" r="4.326776598580182" fill="#a8a29e"/><circle cx="1075.9912396026775" cy="266.61280900612473" r="4.235158531926572" fill="#a8a29e"/><circle cx="967.144886534661" cy="203.76242583803833" r="3.433883899822831" fill="#a8a29e"/><circle cx="995.5950590372086" cy="325.7847178597003" r="4.338023173622787" fill="#a8a29e"/><circle cx="965.5881083551794" cy="197.5972824972123" r="3.5556236170232296" fill="#78716c"/><circle cx="997.4761303626001" cy="214.15403640829027" r="3.331334006972611" fill="#78716c"/><circle cx="1081.0783450379968" cy="331.5048583392054" r="4.911895754747093" fill="#78716c"/><circle cx="1123.0085582770407" cy="553.119732066989" r="4.60223195143044" fill="#a8a29e"/><circle cx="1083.763939796947" cy="493.1706955637783" r="5.089141821488738" fill="#78716c"/><circle cx="1117.815073796548" cy="280.18520495668054" r="3.4795689936727285" fill="#78716c"/><circle cx="987.9464078340679" cy="478.86095725372434" r="5.179380231536925" fill="#78716c"/><circle cx="1039.2520877048373" cy="327.655899617821" r="3.642158981412649" fill="#78716c"/><circle cx="985.9939765492454" cy="345.5368248093873" r="5.0728592509403825" fill="#a8a29e"/><circle cx="1110.3137683980167" cy="374.814102942124" r="2.3243781123310328" fill="#a8a29e"/><circle cx="973.3282658299431" cy="369.0743348058313" r="3.838834721595049" fill="#a8a29e"/><circle cx="1037.4426732016727" cy="416.9830530527979" r="2.8125337781384587" fill="#a8a29e"/><circle cx="997.5048927431926" cy="303.67542886547744" r="4.869514030404389" fill="#78716c"/><circle cx="988.3257994065061" cy="517.7046618107706" r="3.1486019864678383" fill="#a8a29e"/><circle cx="1006.5747474431992" cy="395.8687439933419" r="2.0412749210372567" fill="#78716c"/><circle cx="963.640179168433" cy="347.24646735563874" r="4.7414225321263075" fill="#78716c"/><circle cx="986.4401371255517" cy="431.7132213227451" r="5.108356723561883" fill="#78716c"/><circle cx="989.4868305018172" cy="277.16837545856833" r="2.2577503798529506" fill="#78716c"/><circle cx="1001.2409052522853" cy="552.6172037124634" r="3.1316889487206936" fill="#78716c"/><circle cx="962.3139996491373" cy="248.6438523232937" r="4.62554909940809" fill="#a8a29e"/><circle cx="970.4990598196164" cy="382.5139073636383" r="2.5847219824790955" fill="#78716c"/><circle cx="950.97221886646" cy="169.7937541436404" r="3.678675178438425" fill="#a8a29e"/><circle cx="952.459009825252" cy="419.82853578031063" r="2.6786418091505766" fill="#a8a29e"/><circle cx="968.4846324035898" cy="197.83247097209096" r="5.363180075772107" fill="#78716c"/><circle cx="997.1742437044159" cy="518.9769033677876" r="5.397459817118943" fill="#a8a29e"/><circle cx="996.2246991619468" cy="447.07779205590487" r="5.08797065820545" fill="#78716c"/><circle cx="982.705630466342" cy="561.2998509500176" r="4.528329216875136" fill="#a8a29e"/><circle cx="1067.3141438802704" cy="330.5328527316451" r="4.682214064523578" fill="#78716c"/><circle cx="993.9148534312844" cy="265.2440421786159" r="5.525779823772609" fill="#a8a29e"/><circle cx="947.1193814361468" cy="214.8784542363137" r="3.806095323525369" fill="#a8a29e"/><circle cx="1067.3154988475144" cy="339.50696133449674" r="4.935859062708914" fill="#78716c"/><circle cx="1081.452802262269" cy="337.7426161635667" r="2.0377374347299337" fill="#a8a29e"/><circle cx="964.040168300271" cy="382.6276352610439" r="5.530294605530798" fill="#a8a29e"/><circle cx="1019.0135193364695" cy="368.1602322962135" r="5.970886472612619" fill="#78716c"/><circle cx="962.1931244898587" cy="338.65594788454473" r="2.74434529338032" fill="#78716c"/><circle cx="1046.0286046005785" cy="197.7734075114131" r="4.558616364374757" fill="#78716c"/><circle cx="1056.584270463325" cy="341.7150492593646" r="4.632900414057076" fill="#78716c"/><circle cx="1013.5807125791907" cy="380.43642004579306" r="4.8499150183051825" fill="#a8a29e"/><circle cx="944.7376352474093" cy="236.04768630862236" r="4.95707699842751" fill="#78716c"/><circle cx="1012.3609464224428" cy="386.173119276762" r="3.84269951749593" fill="#a8a29e"/><circle cx="1094.9281669501215" cy="212.86167227104306" r="5.391521679237485" fill="#a8a29e"/><circle cx="969.3842687597498" cy="525.933158557862" r="5.849915785714984" fill="#a8a29e"/><circle cx="1026.7544130589813" cy="391.16161623597145" r="2.9490633914247155" fill="#78716c"/><circle cx="965.0690863905475" cy="227.60336798243225" r="4.307525583542883" fill="#a8a29e"/><circle cx="1094.282573448494" cy="512.1869105361402" r="2.387593913823366" fill="#a8a29e"/><circle cx="1023.4644467933103" cy="300.3322291802615" r="2.440920425578952" fill="#a8a29e"/><circle cx="1098.266519356519" cy="345.8908379431814" r="3.900272184982896" fill="#78716c"/><circle cx="1106.7026322614402" cy="462.7507189027965" r="5.433056760579348" fill="#78716c"/><circle cx="1016.8049881244078" cy="404.8008444253355" r="5.713851020671427" fill="#78716c"/><circle cx="1042.909690791741" cy="396.0015036445111" r="2.684719112701714" fill="#78716c"/><circle cx="1085.3830253276974" cy="372.60664825327694" r="3.211026051081717" fill="#a8a29e"/><circle cx="993.189385978505" cy="543.9976319503039" r="2.497088650241494" fill="#a8a29e"/><circle cx="954.9568926617503" cy="373.099695071578" r="2.8063806043937802" fill="#78716c"/><circle cx="969.234875950031" cy="295.8738375008106" r="2.5576560320332646" fill="#78716c"/><circle cx="1068.3871337519959" cy="295.0765677019954" r="3.3836567290127277" fill="#78716c"/><circle cx="1090.6598549354821" cy="242.4248456377536" r="5.812271864153445" fill="#78716c"/><circle cx="1078.1155928345397" cy="379.6360027808696" r="4.936166296713054" fill="#a8a29e"/><circle cx="1063.8011844111606" cy="503.8964127060026" r="3.121580548584461" fill="#a8a29e"/><circle cx="1074.2000917913392" cy="426.6574124004692" r="4.463890401646495" fill="#a8a29e"/><circle cx="945.2986519169062" cy="459.440930634737" r="4.4876747308298945" fill="#a8a29e"/><circle cx="936.6996880574152" cy="333.68030022084713" r="3.505822983570397" fill="#a8a29e"/><circle cx="1058.5185699621215" cy="223.753472706303" r="4.728693740442395" fill="#78716c"/><circle cx="1014.2219039583579" cy="329.80866669118404" r="2.1268887110054493" fill="#a8a29e"/><circle cx="989.6739599918947" cy="311.2037066910416" r="5.135784045793116" fill="#78716c"/><circle cx="1014.8706290517002" cy="226.33232972584665" r="4.218727691099048" fill="#78716c"/><circle cx="1020.4603409282863" cy="483.0274147782475" r="2.5523025803267956" fill="#a8a29e"/><circle cx="1121.454861657694" cy="294.1602834444493" r="5.409628591500223" fill="#a8a29e"/><circle cx="966.6606435654685" cy="329.14439203590155" r="5.135291907005012" fill="#a8a29e"/><circle cx="1112.3308047223836" cy="329.8192505482584" r="5.852464833296835" fill="#78716c"/><circle cx="968.5512672457844" cy="390.48925257474184" r="5.711193569004536" fill="#a8a29e"/><circle cx="1055.2639793064445" cy="445.44156100042164" r="3.3408771213144064" fill="#a8a29e"/><circle cx="1068.452336281538" cy="441.478230221197" r="2.265987458638847" fill="#a8a29e"/><circle cx="1061.345101537183" cy="335.3872623909265" r="2.3873776672407985" fill="#78716c"/><circle cx="1016.1987373037264" cy="277.0850546695292" r="5.471550587564707" fill="#78716c"/><circle cx="956.6636486221105" cy="560.5854413099587" r="3.799118242226541" fill="#a8a29e"/><circle cx="1102.3034558426589" cy="407.7403602320701" r="2.7733837915584445" fill="#a8a29e"/><circle cx="983.1317761782557" cy="401.08238381147385" r="4.244930495508015" fill="#a8a29e"/><circle cx="1100.5418700855225" cy="385.02630271948874" r="2.559665210545063" fill="#a8a29e"/><circle cx="1090.7537332642823" cy="455.17332785762846" r="2.0511020673438907" fill="#a8a29e"/><circle cx="957.1640339326113" cy="269.84516911394894" r="2.224406762048602" fill="#78716c"/><circle cx="1077.2603501603007" cy="350.9971002731472" r="4.039952615275979" fill="#a8a29e"/>
    <rect x="930" y="160" width="200" height="420" fill="none" stroke="#1f2937" stroke-width="4"/>
    <text x="1030" y="636" font-family="Helvetica, Arial, sans-serif" font-size="32" font-weight="bold" text-anchor="middle" fill="#1f2937">kamen</text><rect x="1200" y="160" width="200" height="420" fill="url(#alu)"/>
      <line x1="1240" y1="160" x2="1240" y2="580" stroke="#f8fafc" stroke-width="7" opacity="0.7"/>
      <line x1="1350" y1="160" x2="1350" y2="580" stroke="#f8fafc" stroke-width="4" opacity="0.5"/>
    <rect x="1200" y="160" width="200" height="420" fill="none" stroke="#1f2937" stroke-width="4"/>
    <text x="1300" y="636" font-family="Helvetica, Arial, sans-serif" font-size="32" font-weight="bold" text-anchor="middle" fill="#1f2937">aluminij</text>
  <path d="M 170 790 L 220 755 L 220 775 L 1280 775 L 1280 755 L 1330 790 L 1280 825 L 1280 805 L 220 805 L 220 825 Z"
        fill="url(#hotcold)" stroke="#1f2937" stroke-width="3"/>
  <text x="170" y="890" font-family="Helvetica, Arial, sans-serif" font-size="34" font-weight="bold" fill="#1d4ed8">dobar izolator</text>
  <text x="1330" y="890" font-family="Helvetica, Arial, sans-serif" font-size="34" font-weight="bold" text-anchor="end" fill="#dc2626">dobar vodi&#269;</text></svg>