<svg width="1500" height="1000" viewBox="0 0 1500 1000" xmlns="http://www.w3.org/2000/svg">
  <rect width="1500" height="1000" fill="#ffffff"/>
  <!-- logs -->
  <g stroke="#92400e" stroke-width="22" stroke-linecap="round">
    <line x1="570" y1="828" x2="830" y2="852"/>
    <line x1="570" y1="852" x2="830" y2="828"/>
  </g>
  
    <path d="M 620 696 C 568 768, 576 801.6, 620 816
             C 664 801.6, 672 768, 620 696 Z" fill="#f97316"/>
    <path d="M 620 744 C 594.4 785.6, 597.6 806.4, 620 816
             C 642.4 806.4, 645.6 785.6, 620 744 Z" fill="#fde047"/>
    <path d="M 780 696 C 728 768, 736 801.6, 780 816
             C 824 801.6, 832 768, 780 696 Z" fill="#f97316"/>
    <path d="M 780 744 C 754.4 785.6, 757.6 806.4, 780 816
             C 802.4 806.4, 805.6 785.6, 780 744 Z" fill="#fde047"/>
    <path d="M 700 647.5 C 625.25 751, 636.75 799.3, 700 820
             C 763.25 799.3, 774.75 751, 700 647.5 Z" fill="#f97316"/>
    <path d="M 700 716.5 C 663.2 776.3, 667.8 806.2, 700 820
             C 732.2 806.2, 736.8 776.3, 700 716.5 Z" fill="#fde047"/>
  <!-- radiation -->
  <g transform="rotate(38 500 790)">
    <path d="M 500 790 q 14 -22 0 -44 q -14 -22 0 -44 q 14 -22 0 -44" fill="none" stroke="#dc2626" stroke-width="7" stroke-linecap="round"/>
    <g transform="rotate(-90 500 658)">
    <path d="M 490 648 L 500 658 L 490 668" fill="none"
          stroke="#dc2626" stroke-width="7" stroke-linecap="round" stroke-linejoin="round"/></g></g><g transform="rotate(55 415 818)">
    <path d="M 415 818 q 14 -22 0 -44 q -14 -22 0 -44 q 14 -22 0 -44" fill="none" stroke="#dc2626" stroke-width="7" stroke-linecap="round"/>
    <g transform="rotate(-90 415 686)">
    <path d="M 405 676 L 415 686 L 405 696" fill="none"
          stroke="#dc2626" stroke-width="7" stroke-linecap="round" stroke-linejoin="round"/></g></g>
  <g transform="rotate(-38 900 790)">
    <path d="M 900 790 q 14 -22 0 -44 q -14 -22 0 -44 q 14 -22 0 -44" fill="none" stroke="#dc2626" stroke-width="7" stroke-linecap="round"/>
    <g transform="rotate(-90 900 658)">
    <path d="M 890 648 L 900 658 L 890 668" fill="none"
          stroke="#dc2626" stroke-width="7" stroke-linecap="round" stroke-linejoin="round"/></g></g><g transform="rotate(-55 985 818)">
    <path d="M 985 818 q 14 -22 0 -44 q -14 -22 0 -44 q 14 -22 0 -44" fill="none" stroke="#dc2626" stroke-width="7" stroke-linecap="round"/>
    <g transform="rotate(-90 985 686)">
    <path d="M 975 676 L 985 686 L 975 696" fill="none"
          stroke="#dc2626" stroke-width="7" stroke-linecap="round" stroke-linejoin="round"/></g></g>
  <!-- pot -->
  <path d="M 470 330 L 482 600 Q 484 626 510 626 L 890 626 Q 916 626 918 600 L 930 330 Z"
        fill="#cbd5e1" stroke="#64748b" stroke-width="6"/>
  <rect x="478" y="358" width="444" height="240" fill="#93c5fd" opacity="0.85"/>
  <ellipse cx="700" cy="330" rx="230" ry="26" fill="#e2e8f0" stroke="#64748b" stroke-width="5"/>
  <!-- handle -->
  <rect x="922" y="380" width="270" height="34" rx="17" fill="#475569"/>
  <g stroke="#dc2626" stroke-width="6" stroke-linecap="round">
    <line x1="950" y1="370" x2="1000" y2="370"/><line x1="1020" y1="370" x2="1070" y2="370"/>
  </g>
  <g transform="rotate(0 1085 370)">
    <path d="M 1076 361 L 1085 370 L 1076 379" fill="none"
          stroke="#dc2626" stroke-width="6" stroke-linecap="round" stroke-linejoin="round"/></g>
  <!-- convection -->
  <g transform="translate(595 480) scale(1 1)">
    <path d="M 0 60 C 45 55, 45 -55, 0 -60 C -28 -62, -40 -30, -38 0" fill="none" stroke="#2563eb" stroke-width="7"/>
    <g transform="rotate(95 -38 8)">
    <path d="M -48 -2 L -38 8 L -48 18" fill="none"
          stroke="#2563eb" stroke-width="7" stroke-linecap="round" stroke-linejoin="round"/></g></g><g transform="translate(805 480) scale(-1 1)">
    <path d="M 0 60 C 45 55, 45 -55, 0 -60 C -28 -62, -40 -30, -38 0" fill="none" stroke="#2563eb" stroke-width="7"/>
    <g transform="rotate(95 -38 8)">
    <path d="M -48 -2 L -38 8 L -48 18" fill="none"
          stroke="#2563eb" stroke-width="7" stroke-linecap="round" stroke-linejoin="round"/></g></g>
  <!-- labels -->
  <text x="255" y="470" font-family="Helvetica, Arial, sans-serif" font-size="38" font-weight="bold" fill="#1f2937">Convection</text>
  <line x1="395" y1="482" x2="540" y2="500" stroke="#1f2937" stroke-width="4"/>
  <text x="1130" y="300" font-family="Helvetica, Arial, sans-serif" font-size="38" font-weight="bold" fill="#1f2937">Conduction</text>
  <line x1="1190" y1="315" x2="1060" y2="378" stroke="#1f2937" stroke-width="4"/>
  <text x="1180" y="680" font-family="Helvetica, Arial, sans-serif" font-size="38" font-weight="bold" fill="#1f2937">Radiation</text>
  <line x1="1175" y1="668" x2="1000" y2="640" stroke="#1f2937" stroke-width="4"/></svg>