<svg width="1500" height="1000" viewBox="0 0 1500 1000" xmlns="http://www.w3.org/2000/svg"><rect width="1500" height="1000" fill="#ffffff"/><text x="750" y="82" font-family="Helvetica, Arial, sans-serif" font-size="50" font-weight="bold" text-anchor="middle" fill="#FB6F52">Jedna staklenka, dva sićušna radnika</text><clipPath id="jar"><rect x="130" y="200" width="470" height="640" rx="46"/></clipPath><rect x="170" y="166" width="390" height="60" rx="18" fill="#FFFDF7" stroke="#c7c0b0" stroke-width="7"/><rect x="130" y="200" width="470" height="640" rx="46" fill="#FFFDF7" stroke="#c7c0b0" stroke-width="8"/><g clip-path="url(#jar)"><rect x="130" y="404.8" width="470" height="640" fill="#F0E4CE"/><path d="M 130 404.8 q 60 -34 118 0 t 118 0 t 118 0 t 118 0 V 840 H 130 Z" fill="#F0E4CE" stroke="#D8C6A0" stroke-width="5"/><circle cx="292.0" cy="489.5" r="25.3" fill="#E6B24D" stroke="#B07C1E" stroke-width="6"/><circle cx="292.0" cy="489.5" r="8.6" fill="#C98A2E"/><circle cx="250" cy="524.8" r="46" fill="#E6B24D" stroke="#B07C1E" stroke-width="6"/><ellipse cx="235.28" cy="509.15999999999997" rx="12.88" ry="8.28" fill="#ffffff" opacity="0.35"/><circle cx="250" cy="524.8" r="14.7" fill="#C98A2E"/><circle cx="470" cy="614.8" r="40" fill="#E6B24D" stroke="#B07C1E" stroke-width="6"/><ellipse cx="457.2" cy="601.1999999999999" rx="11.200000000000001" ry="7.199999999999999" fill="#ffffff" opacity="0.35"/><circle cx="470" cy="614.8" r="12.8" fill="#C98A2E"/><circle cx="270.7" cy="706.9" r="24.2" fill="#E6B24D" stroke="#B07C1E" stroke-width="6"/><circle cx="270.7" cy="706.9" r="8.2" fill="#C98A2E"/><circle cx="320" cy="724.8" r="44" fill="#E6B24D" stroke="#B07C1E" stroke-width="6"/><ellipse cx="305.92" cy="709.8399999999999" rx="12.32" ry="7.92" fill="#ffffff" opacity="0.35"/><circle cx="320" cy="724.8" r="14.1" fill="#C98A2E"/><circle cx="522.7" cy="745.6" r="20.9" fill="#E6B24D" stroke="#B07C1E" stroke-width="6"/><circle cx="522.7" cy="745.6" r="7.1" fill="#C98A2E"/><circle cx="500" cy="784.8" r="38" fill="#E6B24D" stroke="#B07C1E" stroke-width="6"/><ellipse cx="487.84" cy="771.88" rx="10.64" ry="6.84" fill="#ffffff" opacity="0.35"/><circle cx="500" cy="784.8" r="12.2" fill="#C98A2E"/><g transform="translate(400 494.8) rotate(25)">
    <rect x="-39" y="-17" width="78" height="34" rx="17" fill="#3AA98C" stroke="#21785F" stroke-width="5"/>
    <ellipse cx="-14.04" cy="-6.12" rx="12.48" ry="6.12" fill="#ffffff" opacity="0.3"/>
  </g><g transform="translate(230 654.8) rotate(-20)">
    <rect x="-39" y="-17" width="78" height="34" rx="17" fill="#3AA98C" stroke="#21785F" stroke-width="5"/>
    <ellipse cx="-14.04" cy="-6.12" rx="12.48" ry="6.12" fill="#ffffff" opacity="0.3"/>
  </g><g transform="translate(520 704.8) rotate(60)">
    <rect x="-39" y="-17" width="78" height="34" rx="17" fill="#3AA98C" stroke="#21785F" stroke-width="5"/>
    <ellipse cx="-14.04" cy="-6.12" rx="12.48" ry="6.12" fill="#ffffff" opacity="0.3"/>
  </g><g transform="translate(300 834.8) rotate(10)">
    <rect x="-39" y="-17" width="78" height="34" rx="17" fill="#3AA98C" stroke="#21785F" stroke-width="5"/>
    <ellipse cx="-14.04" cy="-6.12" rx="12.48" ry="6.12" fill="#ffffff" opacity="0.3"/>
  </g><g transform="translate(450 874.8) rotate(-35)">
    <rect x="-39" y="-17" width="78" height="34" rx="17" fill="#3AA98C" stroke="#21785F" stroke-width="5"/>
    <ellipse cx="-14.04" cy="-6.12" rx="12.48" ry="6.12" fill="#ffffff" opacity="0.3"/>
  </g><circle cx="490" cy="564.8" r="9" fill="#E8788F" opacity="0.75"/><circle cx="560" cy="654.8" r="9" fill="#E8788F" opacity="0.75"/><circle cx="410" cy="764.8" r="9" fill="#E8788F" opacity="0.75"/><circle cx="630" cy="604.8" r="9" fill="#E8788F" opacity="0.75"/><circle cx="300" cy="364.8" r="26" fill="#BFE1F2" stroke="#7FB4D4" stroke-width="4"/><ellipse cx="292.2" cy="356.48" rx="7.8" ry="5.2" fill="#ffffff" opacity="0.55"/><circle cx="390" cy="294.8" r="20" fill="#BFE1F2" stroke="#7FB4D4" stroke-width="4"/><ellipse cx="384" cy="288.40000000000003" rx="6" ry="4" fill="#ffffff" opacity="0.55"/><circle cx="460" cy="344.8" r="30" fill="#BFE1F2" stroke="#7FB4D4" stroke-width="4"/><ellipse cx="451" cy="335.2" rx="9" ry="6" fill="#ffffff" opacity="0.55"/><circle cx="360" cy="214.8" r="16" fill="#BFE1F2" stroke="#7FB4D4" stroke-width="4"/><ellipse cx="355.2" cy="209.68" rx="4.8" ry="3.2" fill="#ffffff" opacity="0.55"/><circle cx="250" cy="284.8" r="18" fill="#BFE1F2" stroke="#7FB4D4" stroke-width="4"/><ellipse cx="244.6" cy="279.04" rx="5.3999999999999995" ry="3.6" fill="#ffffff" opacity="0.55"/><circle cx="500" cy="254.8" r="22" fill="#BFE1F2" stroke="#7FB4D4" stroke-width="4"/><ellipse cx="493.4" cy="247.76000000000002" rx="6.6" ry="4.4" fill="#ffffff" opacity="0.55"/></g><text x="365" y="906" font-family="Helvetica, Arial, sans-serif" font-size="32" font-weight="bold" text-anchor="middle" fill="#56536b">kvasac za kiselo tijesto</text><rect x="720" y="210" width="700" height="250" rx="26" fill="#FFF8EE" stroke="#e4dcca" stroke-width="4"/><circle cx="867.3" cy="282.7" r="34.1" fill="#E6B24D" stroke="#B07C1E" stroke-width="6"/><circle cx="867.3" cy="282.7" r="11.6" fill="#C98A2E"/><circle cx="815" cy="335" r="62" fill="#E6B24D" stroke="#B07C1E" stroke-width="6"/><ellipse cx="795.16" cy="313.92" rx="17.360000000000003" ry="11.16" fill="#ffffff" opacity="0.35"/><circle cx="815" cy="335" r="19.8" fill="#C98A2E"/><text x="910" y="302" font-family="Helvetica, Arial, sans-serif" font-size="40" font-weight="bold" text-anchor="start" fill="#B07C1E">Divlji kvasac</text><text x="910" y="352" font-family="Helvetica, Arial, sans-serif" font-size="30" font-weight="normal" text-anchor="start" fill="#2c2940">stvara ugljikov dioksid: mjehuriće</text><text x="910" y="394" font-family="Helvetica, Arial, sans-serif" font-size="30" font-weight="normal" text-anchor="start" fill="#2c2940">koji dižu kruh</text><rect x="720" y="540" width="700" height="250" rx="26" fill="#FFF8EE" stroke="#e4dcca" stroke-width="4"/><g transform="translate(815 665) rotate(30)">
    <rect x="-48" y="-21" width="96" height="42" rx="21" fill="#3AA98C" stroke="#21785F" stroke-width="5"/>
    <ellipse cx="-17.28" cy="-7.56" rx="15.36" ry="7.56" fill="#ffffff" opacity="0.3"/>
  </g><text x="910" y="632" font-family="Helvetica, Arial, sans-serif" font-size="40" font-weight="bold" text-anchor="start" fill="#21785F">Bakterije mliječne kiseline</text><text x="910" y="682" font-family="Helvetica, Arial, sans-serif" font-size="30" font-weight="normal" text-anchor="start" fill="#2c2940">stvaraju kiseline: kiseli okus koji</text><text x="910" y="724" font-family="Helvetica, Arial, sans-serif" font-size="30" font-weight="normal" text-anchor="start" fill="#2c2940">čuva kvasac sigurnim</text><text x="750" y="952" font-family="Helvetica, Arial, sans-serif" font-size="32" font-weight="bold" text-anchor="middle" fill="#56536b">Rastu zajedno kao jedna uravnotežena zajednica.</text></svg>