<svg width="1500" height="1000" viewBox="0 0 1500 1000" xmlns="http://www.w3.org/2000/svg">
  <rect width="1500" height="1000" fill="#ffffff"/>
  <text x="750" y="230" font-family="Helvetica, Arial, sans-serif" font-size="44" font-weight="bold" text-anchor="middle" fill="#4f46e5">Drugi Newtonov zakon gibanja</text>
  
    <rect x="350" y="380" width="160" height="160" rx="22" fill="#fbbf24" stroke="#1f2937" stroke-width="5"/>
    <text x="430" y="502" font-family="Helvetica, Arial, sans-serif" font-size="96" font-weight="bold" text-anchor="middle" fill="#1f2937">F</text>
  <text x="595" y="490" font-family="Helvetica, Arial, sans-serif" font-size="90" font-weight="bold" text-anchor="middle" fill="#1f2937">=</text>
  
    <rect x="680" y="380" width="160" height="160" rx="22" fill="#7dd3fc" stroke="#1f2937" stroke-width="5"/>
    <text x="760" y="502" font-family="Helvetica, Arial, sans-serif" font-size="96" font-weight="bold" text-anchor="middle" fill="#1f2937">m</text>
  <text x="925" y="490" font-family="Helvetica, Arial, sans-serif" font-size="90" font-weight="bold" text-anchor="middle" fill="#1f2937">×</text>
  
    <rect x="1010" y="380" width="160" height="160" rx="22" fill="#f9a8d4" stroke="#1f2937" stroke-width="5"/>
    <text x="1090" y="502" font-family="Helvetica, Arial, sans-serif" font-size="96" font-weight="bold" text-anchor="middle" fill="#1f2937">a</text>
  <path d="M 430 550 C 430 620, 330 640, 330 720"
      fill="none" stroke="#9ca3af" stroke-width="5"/><path d="M 760 550 C 760 620, 760 640, 760 720"
      fill="none" stroke="#9ca3af" stroke-width="5"/><path d="M 1090 550 C 1090 620, 1190 640, 1190 720"
      fill="none" stroke="#9ca3af" stroke-width="5"/>
  <text x="330" y="770" font-family="Helvetica, Arial, sans-serif" font-size="44" font-weight="bold" text-anchor="middle" fill="#1f2937">sila</text>
  <text x="760" y="770" font-family="Helvetica, Arial, sans-serif" font-size="44" font-weight="bold" text-anchor="middle" fill="#1f2937">masa</text>
  <text x="1190" y="770" font-family="Helvetica, Arial, sans-serif" font-size="44" font-weight="bold" text-anchor="middle" fill="#1f2937">akceleracija</text></svg>