<svg width="1500" height="1000" viewBox="0 0 1500 1000" xmlns="http://www.w3.org/2000/svg">
  <rect width="1500" height="1000" fill="#ffffff"/>
  <text x="750" y="90" font-family="Helvetica, Arial, sans-serif" font-size="48" font-weight="bold" text-anchor="middle" fill="#4f46e5">Newton&#8217;s First Law of Motion</text>
  
    <rect x="180" y="395" width="420" height="18" rx="9" fill="#4ade80"/><circle cx="390" cy="340" r="55" fill="#ffffff" stroke="#1f2937" stroke-width="5"/>
    <polygon points="390,320.2 408.830919022644,333.88146351137607 401.63814799539097,356.01853648862397 378.36185200460903,356.01853648862397 371.169080977356,333.88146351137607" fill="#1f2937"/><line x1="390" y1="320.2"
             x2="390" y2="289.4" stroke="#1f2937" stroke-width="3.5"/><line x1="408.830919022644" y1="333.88146351137607"
             x2="438.12345972453477" y2="324.36374008462764" stroke="#1f2937" stroke-width="3.5"/><line x1="401.63814799539097" y1="356.01853648862397"
             x2="419.74193376599914" y2="380.9362599153723" stroke="#1f2937" stroke-width="3.5"/><line x1="378.36185200460903" y1="356.01853648862397"
             x2="360.25806623400086" y2="380.9362599153723" stroke="#1f2937" stroke-width="3.5"/><line x1="371.169080977356" y1="333.88146351137607"
             x2="341.87654027546523" y2="324.3637400846277" stroke="#1f2937" stroke-width="3.5"/>
    <text x="390" y="510" font-family="Helvetica, Arial, sans-serif" font-size="28" font-weight="bold" text-anchor="middle" fill="#1f2937">An object at rest</text>
    <text x="390" y="548" font-family="Helvetica, Arial, sans-serif" font-size="28" font-weight="bold" text-anchor="middle" fill="#1f2937">stays at rest&#8230;</text>
  
    <rect x="900" y="395" width="420" height="18" rx="9" fill="#4ade80"/><path d="M 930 380 q -10 -70 30 -75 l 40 5 q 18 40 55 48 l 45 10 q 18 6 12 24 l -178 0 Z"
    fill="#1f2937"/><rect x="926" y="386" width="190" height="12" rx="6" fill="#6b7280"/><circle cx="1180" cy="340" r="55" fill="#ffffff" stroke="#1f2937" stroke-width="5"/>
    <polygon points="1180,320.2 1198.8309190226441,333.88146351137607 1191.638147995391,356.01853648862397 1168.361852004609,356.01853648862397 1161.1690809773559,333.88146351137607" fill="#1f2937"/><line x1="1180" y1="320.2"
             x2="1180" y2="289.4" stroke="#1f2937" stroke-width="3.5"/><line x1="1198.8309190226441" y1="333.88146351137607"
             x2="1228.1234597245348" y2="324.36374008462764" stroke="#1f2937" stroke-width="3.5"/><line x1="1191.638147995391" y1="356.01853648862397"
             x2="1209.7419337659992" y2="380.9362599153723" stroke="#1f2937" stroke-width="3.5"/><line x1="1168.361852004609" y1="356.01853648862397"
             x2="1150.2580662340008" y2="380.9362599153723" stroke="#1f2937" stroke-width="3.5"/><line x1="1161.1690809773559" y1="333.88146351137607"
             x2="1131.8765402754652" y2="324.3637400846277" stroke="#1f2937" stroke-width="3.5"/><g stroke="#f59e0b" stroke-width="6" stroke-linecap="round">
      <line x1="1105" y1="290" x2="1135" y2="310"/><line x1="1090" y1="345" x2="1122" y2="345"/><line x1="1105" y1="395" x2="1135" y2="378"/></g>
    <text x="1110" y="510" font-family="Helvetica, Arial, sans-serif" font-size="28" font-weight="bold" text-anchor="middle" fill="#1f2937">&#8230;unless a force</text>
    <text x="1110" y="548" font-family="Helvetica, Arial, sans-serif" font-size="28" font-weight="bold" text-anchor="middle" fill="#1f2937">acts on it.</text>
  
    <rect x="180" y="805" width="420" height="18" rx="9" fill="#4ade80"/><line x1="220" y1="726" x2="300" y2="726"
     stroke="#93c5fd" stroke-width="8" stroke-linecap="round"/><line x1="220" y1="750" x2="300" y2="750"
     stroke="#93c5fd" stroke-width="8" stroke-linecap="round"/><line x1="220" y1="774" x2="300" y2="774"
     stroke="#93c5fd" stroke-width="8" stroke-linecap="round"/><circle cx="420" cy="750" r="55" fill="#ffffff" stroke="#1f2937" stroke-width="5"/>
    <polygon points="420,730.2 438.830919022644,743.8814635113761 431.63814799539097,766.0185364886239 408.36185200460903,766.0185364886239 401.169080977356,743.8814635113761" fill="#1f2937"/><line x1="420" y1="730.2"
             x2="420" y2="699.4" stroke="#1f2937" stroke-width="3.5"/><line x1="438.830919022644" y1="743.8814635113761"
             x2="468.12345972453477" y2="734.3637400846277" stroke="#1f2937" stroke-width="3.5"/><line x1="431.63814799539097" y1="766.0185364886239"
             x2="449.74193376599914" y2="790.9362599153724" stroke="#1f2937" stroke-width="3.5"/><line x1="408.36185200460903" y1="766.0185364886239"
             x2="390.25806623400086" y2="790.9362599153724" stroke="#1f2937" stroke-width="3.5"/><line x1="401.169080977356" y1="743.8814635113761"
             x2="371.87654027546523" y2="734.3637400846277" stroke="#1f2937" stroke-width="3.5"/>
    <text x="390" y="900" font-family="Helvetica, Arial, sans-serif" font-size="28" font-weight="bold" text-anchor="middle" fill="#1f2937">An object in motion</text>
    <text x="390" y="938" font-family="Helvetica, Arial, sans-serif" font-size="28" font-weight="bold" text-anchor="middle" fill="#1f2937">keeps moving&#8230;</text>
  
    <rect x="900" y="805" width="420" height="18" rx="9" fill="#4ade80"/><line x1="930" y1="726" x2="1010" y2="726"
     stroke="#93c5fd" stroke-width="8" stroke-linecap="round"/><line x1="930" y1="750" x2="1010" y2="750"
     stroke="#93c5fd" stroke-width="8" stroke-linecap="round"/><line x1="930" y1="774" x2="1010" y2="774"
     stroke="#93c5fd" stroke-width="8" stroke-linecap="round"/><circle cx="1120" cy="750" r="55" fill="#ffffff" stroke="#1f2937" stroke-width="5"/>
    <polygon points="1120,730.2 1138.8309190226441,743.8814635113761 1131.638147995391,766.0185364886239 1108.361852004609,766.0185364886239 1101.1690809773559,743.8814635113761" fill="#1f2937"/><line x1="1120" y1="730.2"
             x2="1120" y2="699.4" stroke="#1f2937" stroke-width="3.5"/><line x1="1138.8309190226441" y1="743.8814635113761"
             x2="1168.1234597245348" y2="734.3637400846277" stroke="#1f2937" stroke-width="3.5"/><line x1="1131.638147995391" y1="766.0185364886239"
             x2="1149.7419337659992" y2="790.9362599153724" stroke="#1f2937" stroke-width="3.5"/><line x1="1108.361852004609" y1="766.0185364886239"
             x2="1090.2580662340008" y2="790.9362599153724" stroke="#1f2937" stroke-width="3.5"/><line x1="1101.1690809773559" y1="743.8814635113761"
             x2="1071.8765402754652" y2="734.3637400846277" stroke="#1f2937" stroke-width="3.5"/><path d="M 1255 600 q 70 150 0 300" fill="none" stroke="#dc2626" stroke-width="6"/><path d="M 1271 608 q 45 134 0 268" fill="none" stroke="#dc2626" stroke-width="3.5"/><path d="M 1287 616 q 35 126 0 252" fill="none" stroke="#dc2626" stroke-width="3.5"/><path d="M 1303 624 q 25 118 0 236" fill="none" stroke="#dc2626" stroke-width="3.5"/><path d="M 1319 632 q 15 110 0 220" fill="none" stroke="#dc2626" stroke-width="3.5"/><line x1="1253" y1="620" x2="1323" y2="620" stroke="#dc2626" stroke-width="3.5"/><line x1="1253" y1="672" x2="1323" y2="672" stroke="#dc2626" stroke-width="3.5"/><line x1="1253" y1="724" x2="1323" y2="724" stroke="#dc2626" stroke-width="3.5"/><line x1="1253" y1="776" x2="1323" y2="776" stroke="#dc2626" stroke-width="3.5"/><line x1="1253" y1="828" x2="1323" y2="828" stroke="#dc2626" stroke-width="3.5"/><line x1="1253" y1="880" x2="1323" y2="880" stroke="#dc2626" stroke-width="3.5"/>
    <text x="1110" y="900" font-family="Helvetica, Arial, sans-serif" font-size="28" font-weight="bold" text-anchor="middle" fill="#1f2937">&#8230;unless a force</text>
    <text x="1110" y="938" font-family="Helvetica, Arial, sans-serif" font-size="28" font-weight="bold" text-anchor="middle" fill="#1f2937">stops it.</text></svg>