<svg width="1500" height="1000" viewBox="0 0 1500 1000" xmlns="http://www.w3.org/2000/svg">
  <rect width="1500" height="1000" fill="#ffffff"/>
  <!-- burning match, tilted -->
  <g transform="rotate(-18 420 560)">
    <rect x="395" y="330" width="42" height="480" rx="16" fill="#fcd34d" stroke="#b45309" stroke-width="5"/>
    <ellipse cx="416" cy="320" rx="52" ry="62" fill="#dc2626" stroke="#991b1b" stroke-width="5"/>
    <path d="M 416 120 C 360 200, 380 240, 416 270 C 452 240, 472 200, 416 120 Z" fill="#f97316"/>
    <path d="M 416 170 C 390 215, 398 240, 416 258 C 434 240, 442 215, 416 170 Z" fill="#fde047"/>
  </g>
  <!-- matchbox -->
  <g>
    <polygon points="760,560 1230,560 1330,480 860,480" fill="#fb923c" stroke="#9a3412" stroke-width="5"/>
    <rect x="760" y="560" width="470" height="180" fill="#fdba74" stroke="#9a3412" stroke-width="5"/>
    <rect x="760" y="640" width="470" height="100" fill="#92400e" stroke="#7c2d12" stroke-width="4"/>
    <polygon points="1230,560 1330,480 1330,660 1230,740" fill="#ea580c" stroke="#9a3412" stroke-width="5"/>
  </g>
  <!-- callouts -->
  <text x="700" y="150" font-family="Helvetica, Arial, sans-serif" font-size="34" font-weight="bold" fill="#1f2937">Glava &#353;ibice (zapaljivi dio)</text>
  <line x1="690" y1="165" x2="500" y2="250" stroke="#1f2937" stroke-width="4"/>
  <text x="170" y="870" font-family="Helvetica, Arial, sans-serif" font-size="34" font-weight="bold" fill="#1f2937">Drvce (gorivo)</text>
  <line x1="330" y1="835" x2="480" y2="700" stroke="#1f2937" stroke-width="4"/>
  <text x="1080" y="870" font-family="Helvetica, Arial, sans-serif" font-size="34" font-weight="bold" fill="#1f2937">Kresivo (stvara trenje)</text>
  <line x1="1140" y1="835" x2="1050" y2="700" stroke="#1f2937" stroke-width="4"/></svg>