<svg width="1500" height="1000" viewBox="0 0 1500 1000" xmlns="http://www.w3.org/2000/svg">
  <rect width="1500" height="1000" fill="#ffffff"/>
  <!-- base -->
  <rect x="240" y="690" width="1020" height="56" rx="12" fill="#92400e" stroke="#451a03" stroke-width="5"/>
  <circle cx="380" cy="790" r="80" fill="#7c2d12" stroke="#451a03" stroke-width="6"/>
    <line x1="318" y1="790"
       x2="442" y2="790" stroke="#451a03" stroke-width="9"/><line x1="336.15937956643404" y1="746.159379566434"
       x2="423.84062043356596" y2="833.840620433566" stroke="#451a03" stroke-width="9"/><line x1="380" y1="728"
       x2="380" y2="852" stroke="#451a03" stroke-width="9"/><line x1="423.84062043356596" y1="746.159379566434"
       x2="336.15937956643404" y2="833.840620433566" stroke="#451a03" stroke-width="9"/>
    <circle cx="380" cy="790" r="16" fill="#451a03"/><circle cx="1120" cy="790" r="80" fill="#7c2d12" stroke="#451a03" stroke-width="6"/>
    <line x1="1058" y1="790"
       x2="1182" y2="790" stroke="#451a03" stroke-width="9"/><line x1="1076.1593795664342" y1="746.159379566434"
       x2="1163.8406204335658" y2="833.840620433566" stroke="#451a03" stroke-width="9"/><line x1="1120" y1="728"
       x2="1120" y2="852" stroke="#451a03" stroke-width="9"/><line x1="1163.8406204335658" y1="746.159379566434"
       x2="1076.1593795664342" y2="833.840620433566" stroke="#451a03" stroke-width="9"/>
    <circle cx="1120" cy="790" r="16" fill="#451a03"/>
  <!-- A-frame -->
  <g stroke="#7c2d12" stroke-width="30" stroke-linecap="round">
    <line x1="700" y1="700" x2="880" y2="330"/>
    <line x1="1060" y1="700" x2="880" y2="330"/>
    <line x1="800" y1="500" x2="980" y2="500"/>
  </g>
  <!-- crossbar (stops the arm) -->
  <rect x="690" y="300" width="380" height="34" rx="10" fill="#92400e" stroke="#451a03" stroke-width="4"/>
  <!-- throwing arm with cup -->
  <g>
    <line x1="430" y1="690" x2="1130" y2="280" stroke="#b45309" stroke-width="26" stroke-linecap="round"/>
    <path d="M 1100 295 a 60 60 0 0 0 95 -55 q -30 26 -95 55 Z" fill="#7c2d12" stroke="#451a03" stroke-width="4"/>
  </g>
  <!-- torsion rope at the pivot -->
  <circle cx="610" cy="585" r="26" fill="none" stroke="#d6b27c" stroke-width="10" stroke-dasharray="10 7"/>
  <!-- winch rope -->
  <line x1="430" y1="690" x2="610" y2="585" stroke="#d6b27c" stroke-width="7"/></svg>