<svg width="1500" height="1000" viewBox="0 0 1500 1000" xmlns="http://www.w3.org/2000/svg">
  <rect width="1500" height="1000" fill="#ffffff"/>

  <!-- circuit wire -->
  <path d="M 530 145
           L 530 85 L 1160 85 L 1160 915
           L 530 915 L 530 856"
        fill="none" stroke="#1f2937" stroke-width="11" stroke-linejoin="round"/>

  <!-- flow direction (electron flow: anode → bulb → cathode) -->
  <g transform="rotate(0 870 915)">
    <path d="M 857 902 L 870 915 L 857 928" fill="none"
          stroke="#1f2937" stroke-width="7" stroke-linecap="round" stroke-linejoin="round"/>
  </g>
  <g transform="rotate(-90 1160 700)">
    <path d="M 1147 687 L 1160 700 L 1147 713" fill="none"
          stroke="#1f2937" stroke-width="7" stroke-linecap="round" stroke-linejoin="round"/>
  </g>
  <g transform="rotate(-90 1160 290)">
    <path d="M 1147 277 L 1160 290 L 1147 303" fill="none"
          stroke="#1f2937" stroke-width="7" stroke-linecap="round" stroke-linejoin="round"/>
  </g>
  <g transform="rotate(180 880 85)">
    <path d="M 867 72 L 880 85 L 867 98" fill="none"
          stroke="#1f2937" stroke-width="7" stroke-linecap="round" stroke-linejoin="round"/>
  </g>

  <!-- electrons on the wire -->
  <circle cx="770" cy="915" r="17" fill="#4f46e5"/>
  <text x="764" y="921" font-family="Helvetica, Arial, sans-serif" font-size="20" font-weight="bold" fill="#ffffff">e</text>
  <text x="775" y="914" font-family="Helvetica, Arial, sans-serif" font-size="15" font-weight="bold" fill="#ffffff">-</text><circle cx="1010" cy="915" r="17" fill="#4f46e5"/>
  <text x="1004" y="921" font-family="Helvetica, Arial, sans-serif" font-size="20" font-weight="bold" fill="#ffffff">e</text>
  <text x="1015" y="914" font-family="Helvetica, Arial, sans-serif" font-size="15" font-weight="bold" fill="#ffffff">-</text>
  <circle cx="1160" cy="760" r="17" fill="#4f46e5"/>
  <text x="1154" y="766" font-family="Helvetica, Arial, sans-serif" font-size="20" font-weight="bold" fill="#ffffff">e</text>
  <text x="1165" y="759" font-family="Helvetica, Arial, sans-serif" font-size="15" font-weight="bold" fill="#ffffff">-</text><circle cx="1160" cy="350" r="17" fill="#4f46e5"/>
  <text x="1154" y="356" font-family="Helvetica, Arial, sans-serif" font-size="20" font-weight="bold" fill="#ffffff">e</text>
  <text x="1165" y="349" font-family="Helvetica, Arial, sans-serif" font-size="15" font-weight="bold" fill="#ffffff">-</text>
  <circle cx="1080" cy="85" r="17" fill="#4f46e5"/>
  <text x="1074" y="91" font-family="Helvetica, Arial, sans-serif" font-size="20" font-weight="bold" fill="#ffffff">e</text>
  <text x="1085" y="84" font-family="Helvetica, Arial, sans-serif" font-size="15" font-weight="bold" fill="#ffffff">-</text><circle cx="700" cy="85" r="17" fill="#4f46e5"/>
  <text x="694" y="91" font-family="Helvetica, Arial, sans-serif" font-size="20" font-weight="bold" fill="#ffffff">e</text>
  <text x="705" y="84" font-family="Helvetica, Arial, sans-serif" font-size="15" font-weight="bold" fill="#ffffff">-</text>

  <!-- bulb on the right side -->
  <circle cx="1160" cy="500" r="64" fill="#fef9c3" opacity="0.9"/>
  <circle cx="1160" cy="500" r="40" fill="#fde047" stroke="#ca8a04" stroke-width="5"/>
  <path d="M 1146 538 h 28 l -6 26 h -16 Z" fill="#9ca3af" stroke="#6b7280" stroke-width="3"/>
  <g stroke="#eab308" stroke-width="5" stroke-linecap="round">
    <line x1="1082" y1="450" x2="1102" y2="462"/>
    <line x1="1238" y1="450" x2="1218" y2="462"/>
    <line x1="1072" y1="500" x2="1096" y2="500"/>
    <line x1="1248" y1="500" x2="1224" y2="500"/>
  </g>

  <!-- battery terminals -->
  <rect x="485" y="145" width="90" height="45" fill="#d1d5db" stroke="#1f2937" stroke-width="5"/>
  <rect x="485" y="811" width="90" height="45" fill="#d1d5db" stroke="#1f2937" stroke-width="5"/>
  <text x="425" y="135" font-family="Helvetica, Arial, sans-serif" font-size="78" font-weight="bold" fill="#b91c1c">+</text>
  <text x="400" y="886" font-family="Helvetica, Arial, sans-serif" font-size="78" font-weight="bold" fill="#1f2937">&#8211;</text>

  <!-- battery body -->
  
    <rect x="360" y="190" width="340" height="207" fill="#7dd3fc" stroke="#1f2937" stroke-width="5"/>
    <text x="530" y="307.5" text-anchor="middle" font-family="Helvetica, Arial, sans-serif"
          font-size="44" font-weight="bold" fill="#1f2937">Katoda</text>
  
    <rect x="360" y="397" width="340" height="207" fill="#fde68a" stroke="#1f2937" stroke-width="5"/>
    <text x="530" y="514.5" text-anchor="middle" font-family="Helvetica, Arial, sans-serif"
          font-size="44" font-weight="bold" fill="#1f2937">Elektrolit</text>
  
    <rect x="360" y="604" width="340" height="207" fill="#fdba74" stroke="#1f2937" stroke-width="5"/>
    <text x="530" y="721.5" text-anchor="middle" font-family="Helvetica, Arial, sans-serif"
          font-size="44" font-weight="bold" fill="#1f2937">Anoda</text>
  <circle cx="405" cy="654" r="17" fill="#4f46e5"/>
  <text x="399" y="660" font-family="Helvetica, Arial, sans-serif" font-size="20" font-weight="bold" fill="#ffffff">e</text>
  <text x="410" y="653" font-family="Helvetica, Arial, sans-serif" font-size="15" font-weight="bold" fill="#ffffff">-</text><circle cx="655" cy="649" r="17" fill="#4f46e5"/>
  <text x="649" y="655" font-family="Helvetica, Arial, sans-serif" font-size="20" font-weight="bold" fill="#ffffff">e</text>
  <text x="660" y="648" font-family="Helvetica, Arial, sans-serif" font-size="15" font-weight="bold" fill="#ffffff">-</text><circle cx="405" cy="769" r="17" fill="#4f46e5"/>
  <text x="399" y="775" font-family="Helvetica, Arial, sans-serif" font-size="20" font-weight="bold" fill="#ffffff">e</text>
  <text x="410" y="768" font-family="Helvetica, Arial, sans-serif" font-size="15" font-weight="bold" fill="#ffffff">-</text><circle cx="650" cy="769" r="17" fill="#4f46e5"/>
  <text x="644" y="775" font-family="Helvetica, Arial, sans-serif" font-size="20" font-weight="bold" fill="#ffffff">e</text>
  <text x="655" y="768" font-family="Helvetica, Arial, sans-serif" font-size="15" font-weight="bold" fill="#ffffff">-</text><circle cx="530" cy="782" r="17" fill="#4f46e5"/>
  <text x="524" y="788" font-family="Helvetica, Arial, sans-serif" font-size="20" font-weight="bold" fill="#ffffff">e</text>
  <text x="535" y="781" font-family="Helvetica, Arial, sans-serif" font-size="15" font-weight="bold" fill="#ffffff">-</text>
</svg>