<svg width="1500" height="1000" viewBox="0 0 1500 1000" xmlns="http://www.w3.org/2000/svg">
  <rect width="1500" height="1000" fill="#ffffff"/>
  <line x1="80" y1="180" x2="470" y2="180" stroke="#1f2937" stroke-width="4"/>
      <g transform="rotate(0 300 180)">
    <path d="M 291 171 L 300 180 L 291 189" fill="none"
          stroke="#dc2626" stroke-width="5" stroke-linecap="round" stroke-linejoin="round"/></g>
      <line x1="490" y1="180" x2="1060" y2="500" stroke="#1f2937" stroke-width="4"/>
      <line x1="1060" y1="500" x2="1440" y2="676" stroke="#1f2937" stroke-width="4"/><line x1="80" y1="260" x2="470" y2="260" stroke="#1f2937" stroke-width="4"/>
      <g transform="rotate(0 300 260)">
    <path d="M 291 251 L 300 260 L 291 269" fill="none"
          stroke="#dc2626" stroke-width="5" stroke-linecap="round" stroke-linejoin="round"/></g>
      <line x1="490" y1="260" x2="1060" y2="500" stroke="#1f2937" stroke-width="4"/>
      <line x1="1060" y1="500" x2="1440" y2="632" stroke="#1f2937" stroke-width="4"/><line x1="80" y1="340" x2="470" y2="340" stroke="#1f2937" stroke-width="4"/>
      <g transform="rotate(0 300 340)">
    <path d="M 291 331 L 300 340 L 291 349" fill="none"
          stroke="#dc2626" stroke-width="5" stroke-linecap="round" stroke-linejoin="round"/></g>
      <line x1="490" y1="340" x2="1060" y2="500" stroke="#1f2937" stroke-width="4"/>
      <line x1="1060" y1="500" x2="1440" y2="588" stroke="#1f2937" stroke-width="4"/><line x1="80" y1="420" x2="470" y2="420" stroke="#1f2937" stroke-width="4"/>
      <g transform="rotate(0 300 420)">
    <path d="M 291 411 L 300 420 L 291 429" fill="none"
          stroke="#dc2626" stroke-width="5" stroke-linecap="round" stroke-linejoin="round"/></g>
      <line x1="490" y1="420" x2="1060" y2="500" stroke="#1f2937" stroke-width="4"/>
      <line x1="1060" y1="500" x2="1440" y2="544" stroke="#1f2937" stroke-width="4"/><line x1="80" y1="500" x2="470" y2="500" stroke="#1f2937" stroke-width="4"/>
      <g transform="rotate(0 300 500)">
    <path d="M 291 491 L 300 500 L 291 509" fill="none"
          stroke="#dc2626" stroke-width="5" stroke-linecap="round" stroke-linejoin="round"/></g>
      <line x1="490" y1="500" x2="1060" y2="500" stroke="#1f2937" stroke-width="4"/>
      <line x1="1060" y1="500" x2="1440" y2="500" stroke="#1f2937" stroke-width="4"/><line x1="80" y1="580" x2="470" y2="580" stroke="#1f2937" stroke-width="4"/>
      <g transform="rotate(0 300 580)">
    <path d="M 291 571 L 300 580 L 291 589" fill="none"
          stroke="#dc2626" stroke-width="5" stroke-linecap="round" stroke-linejoin="round"/></g>
      <line x1="490" y1="580" x2="1060" y2="500" stroke="#1f2937" stroke-width="4"/>
      <line x1="1060" y1="500" x2="1440" y2="456" stroke="#1f2937" stroke-width="4"/><line x1="80" y1="660" x2="470" y2="660" stroke="#1f2937" stroke-width="4"/>
      <g transform="rotate(0 300 660)">
    <path d="M 291 651 L 300 660 L 291 669" fill="none"
          stroke="#dc2626" stroke-width="5" stroke-linecap="round" stroke-linejoin="round"/></g>
      <line x1="490" y1="660" x2="1060" y2="500" stroke="#1f2937" stroke-width="4"/>
      <line x1="1060" y1="500" x2="1440" y2="412" stroke="#1f2937" stroke-width="4"/><line x1="80" y1="740" x2="470" y2="740" stroke="#1f2937" stroke-width="4"/>
      <g transform="rotate(0 300 740)">
    <path d="M 291 731 L 300 740 L 291 749" fill="none"
          stroke="#dc2626" stroke-width="5" stroke-linecap="round" stroke-linejoin="round"/></g>
      <line x1="490" y1="740" x2="1060" y2="500" stroke="#1f2937" stroke-width="4"/>
      <line x1="1060" y1="500" x2="1440" y2="368" stroke="#1f2937" stroke-width="4"/><line x1="80" y1="820" x2="470" y2="820" stroke="#1f2937" stroke-width="4"/>
      <g transform="rotate(0 300 820)">
    <path d="M 291 811 L 300 820 L 291 829" fill="none"
          stroke="#dc2626" stroke-width="5" stroke-linecap="round" stroke-linejoin="round"/></g>
      <line x1="490" y1="820" x2="1060" y2="500" stroke="#1f2937" stroke-width="4"/>
      <line x1="1060" y1="500" x2="1440" y2="324" stroke="#1f2937" stroke-width="4"/>
  <path d="M 480 130 C 538 260, 538 740, 480 870 C 422 740, 422 260, 480 130 Z"
        fill="#bae6fd" opacity="0.85" stroke="#0284c7" stroke-width="5"/>
  <text x="480" y="90" font-family="Helvetica, Arial, sans-serif" font-size="34" font-weight="bold" text-anchor="middle" fill="#4f46e5">Convex lens</text>
  <circle cx="1060" cy="500" r="10" fill="#dc2626"/>
  <line x1="1060" y1="320" x2="1060" y2="475" stroke="#dc2626" stroke-width="7"/>
    <g transform="rotate(90 1060 475)">
    <path d="M 1049 464 L 1060 475 L 1049 486" fill="none"
          stroke="#dc2626" stroke-width="7" stroke-linecap="round" stroke-linejoin="round"/></g>
  <text x="1060" y="285" font-family="Helvetica, Arial, sans-serif" font-size="34" font-weight="bold" text-anchor="middle" fill="#dc2626">Focal point</text>
  <g stroke="#dc2626" stroke-width="4" stroke-dasharray="12 10">
    <line x1="480" y1="880" x2="480" y2="965"/>
    <line x1="1060" y1="540" x2="1060" y2="965"/>
  </g>
  <line x1="640" y1="940" x2="495" y2="940" stroke="#dc2626" stroke-width="6"/>
    <g transform="rotate(180 495 940)">
    <path d="M 484 929 L 495 940 L 484 951" fill="none"
          stroke="#dc2626" stroke-width="6" stroke-linecap="round" stroke-linejoin="round"/></g>
  <line x1="910" y1="940" x2="1045" y2="940" stroke="#dc2626" stroke-width="6"/>
    <g transform="rotate(0 1045 940)">
    <path d="M 1034 929 L 1045 940 L 1034 951" fill="none"
          stroke="#dc2626" stroke-width="6" stroke-linecap="round" stroke-linejoin="round"/></g>
  <text x="775" y="950" font-family="Helvetica, Arial, sans-serif" font-size="32" font-weight="bold" text-anchor="middle" fill="#dc2626">Focal length</text></svg>