<svg width="1500" height="1000" viewBox="0 0 1500 1000" xmlns="http://www.w3.org/2000/svg">
  <rect width="1500" height="1000" fill="#ffffff"/>
  
    <path d="M 110 380 L 110 742 Q 110 760 128 760
             L 352 760 Q 370 760 370 742 L 370 380"
          fill="none" stroke="#64748b" stroke-width="7"/>
    <rect x="117" y="430" width="246" height="323" fill="#bfdbfe" opacity="0.55"/>
    <circle cx="280.2322811149061" cy="656.3681165222079" r="9" fill="#f97316"/><circle cx="180.5897581782192" cy="614.4900702219456" r="9" fill="#f97316"/><circle cx="152.04908666294068" cy="605.8061832562089" r="9" fill="#f97316"/><circle cx="286.66167608555406" cy="568.2691795099527" r="9" fill="#f97316"/><circle cx="325.99175804667175" cy="504.24011225812137" r="9" fill="#f97316"/><circle cx="299.33104384317994" cy="647.3715875204653" r="9" fill="#f97316"/><circle cx="274.03873135056347" cy="443.8699977379292" r="9" fill="#f97316"/><circle cx="232.66509850230068" cy="524.1274200193584" r="9" fill="#f97316"/><circle cx="324.0685539850965" cy="520.6724462006241" r="9" fill="#f97316"/><circle cx="294.12300004437566" cy="642.5753244105726" r="9" fill="#f97316"/><circle cx="187.75855683069676" cy="445.32514228485525" r="9" fill="#f97316"/><circle cx="302.22374811861664" cy="498.3204898517579" r="9" fill="#f97316"/><circle cx="191.79529442545027" cy="474.5133393444121" r="9" fill="#f97316"/><circle cx="233.6564575880766" cy="717.6601488515735" r="9" fill="#f97316"/>
    
    
  <text x="240" y="860" font-family="Helvetica, Arial, sans-serif" font-size="30" font-weight="bold" text-anchor="middle" fill="#1f2937">(a) Nezasi&#263;ena</text>
  <line x1="420" y1="560" x2="510" y2="560" stroke="#1f2937" stroke-width="7"/>
    <g transform="rotate(0 510 560)">
    <path d="M 499 549 L 510 560 L 499 571" fill="none"
          stroke="#1f2937" stroke-width="7" stroke-linecap="round" stroke-linejoin="round"/></g>
  
    <path d="M 490 380 L 490 742 Q 490 760 508 760
             L 732 760 Q 750 760 750 742 L 750 380"
          fill="none" stroke="#64748b" stroke-width="7"/>
    <rect x="497" y="430" width="246" height="323" fill="#93c5fd" opacity="0.55"/>
    <circle cx="566.0401715515181" cy="462.6645642891526" r="9" fill="#f97316"/><circle cx="693.9017359605059" cy="528.7667874060571" r="9" fill="#f97316"/><circle cx="600.4031507084146" cy="716.0064695589244" r="9" fill="#f97316"/><circle cx="571.6588867623359" cy="548.1086813285947" r="9" fill="#f97316"/><circle cx="560.0588368345052" cy="683.3828288130462" r="9" fill="#f97316"/><circle cx="667.1406238144264" cy="686.0674906242639" r="9" fill="#f97316"/><circle cx="622.4492165930569" cy="665.4192139301449" r="9" fill="#f97316"/><circle cx="651.6210020566359" cy="479.0962537378073" r="9" fill="#f97316"/><circle cx="648.8420843537897" cy="601.7333221808076" r="9" fill="#f97316"/><circle cx="580.8188603529707" cy="658.0879621766508" r="9" fill="#f97316"/><circle cx="643.1966370968148" cy="442.27553306147456" r="9" fill="#f97316"/><circle cx="711.5861818213016" cy="535.625403188169" r="9" fill="#f97316"/><circle cx="588.2232012888417" cy="684.8886853642762" r="9" fill="#f97316"/><circle cx="566.8293525706977" cy="489.06167812645435" r="9" fill="#f97316"/><circle cx="690.7371810032055" cy="518.0893591884524" r="9" fill="#f97316"/><circle cx="725.6367499679327" cy="443.84314524009824" r="9" fill="#f97316"/><circle cx="588.4251885293052" cy="652.381647285074" r="9" fill="#f97316"/><circle cx="580.6171380281448" cy="625.012383647263" r="9" fill="#f97316"/><circle cx="530.2766342591494" cy="462.38232689909637" r="9" fill="#f97316"/><circle cx="669.8114794818684" cy="586.9227346405387" r="9" fill="#f97316"/><circle cx="567.7285543326288" cy="700.4113428387791" r="9" fill="#f97316"/><circle cx="524.5002561872825" cy="645.7188534550369" r="9" fill="#f97316"/><circle cx="716.2212462164462" cy="519.862657347694" r="9" fill="#f97316"/><circle cx="627.0321671413258" cy="679.8226086143404" r="9" fill="#f97316"/><circle cx="693.5249396916479" cy="602.0900900755078" r="9" fill="#f97316"/><circle cx="716.7749115573242" cy="636.6960507351905" r="9" fill="#f97316"/><circle cx="628.5184612469748" cy="470.7731413375586" r="9" fill="#f97316"/><circle cx="576.3382619628683" cy="588.248027889058" r="9" fill="#f97316"/><circle cx="546.8602605285123" cy="510.59066818095744" r="9" fill="#f97316"/><circle cx="676.5748102637008" cy="478.80166945979" r="9" fill="#f97316"/>
    <path d="M 550 753 Q 620 716 690 753 Z" fill="#ea580c"/>
    
  <text x="620" y="860" font-family="Helvetica, Arial, sans-serif" font-size="30" font-weight="bold" text-anchor="middle" fill="#1f2937">(b) Zasi&#263;ena</text>
  <line x1="800" y1="560" x2="890" y2="560" stroke="#1f2937" stroke-width="7"/>
    <g transform="rotate(0 890 560)">
    <path d="M 879 549 L 890 560 L 879 571" fill="none"
          stroke="#1f2937" stroke-width="7" stroke-linecap="round" stroke-linejoin="round"/></g>
  
    <path d="M 870 380 L 870 742 Q 870 760 888 760
             L 1112 760 Q 1130 760 1130 742 L 1130 380"
          fill="none" stroke="#64748b" stroke-width="7"/>
    <rect x="877" y="430" width="246" height="323" fill="#60a5fa" opacity="0.55"/>
    <circle cx="910.9712289934978" cy="531.4741880632937" r="9" fill="#f97316"/><circle cx="1064.7920568529516" cy="620.0856325682253" r="9" fill="#f97316"/><circle cx="981.456901893951" cy="467.3288628831506" r="9" fill="#f97316"/><circle cx="955.5889811776578" cy="707.9353103786707" r="9" fill="#f97316"/><circle cx="963.2084665345028" cy="636.7782383039594" r="9" fill="#f97316"/><circle cx="1051.7603020751849" cy="468.6197021137923" r="9" fill="#f97316"/><circle cx="1060.1034124186262" cy="700.8809881005436" r="9" fill="#f97316"/><circle cx="1022.4130279440433" cy="471.18961774744093" r="9" fill="#f97316"/><circle cx="970.6979608926922" cy="552.8342628385872" r="9" fill="#f97316"/><circle cx="904.9934451431036" cy="557.9643500968814" r="9" fill="#f97316"/><circle cx="1088.5744603825733" cy="527.1551588270813" r="9" fill="#f97316"/><circle cx="1056.5641135359183" cy="454.56394458189607" r="9" fill="#f97316"/><circle cx="1067.0813410077244" cy="468.1838948652148" r="9" fill="#f97316"/><circle cx="1002.5319726942107" cy="671.5206918213516" r="9" fill="#f97316"/><circle cx="938.4613317660987" cy="607.0148547366261" r="9" fill="#f97316"/><circle cx="915.3923169262707" cy="541.87350329943" r="9" fill="#f97316"/><circle cx="1034.6503870552406" cy="511.17850517854095" r="9" fill="#f97316"/><circle cx="1038.436420080252" cy="507.15374449267983" r="9" fill="#f97316"/><circle cx="947.7021682020277" cy="715.7074191980064" r="9" fill="#f97316"/><circle cx="1030.342967921868" cy="566.8158020079136" r="9" fill="#f97316"/><circle cx="1051.3661757232621" cy="450.8288177102804" r="9" fill="#f97316"/><circle cx="1025.1103179175407" cy="623.5862795915455" r="9" fill="#f97316"/><circle cx="898.0972427073866" cy="480.50295915454626" r="9" fill="#f97316"/><circle cx="964.7300738897175" cy="533.7749557383358" r="9" fill="#f97316"/><circle cx="1030.1845328714699" cy="705.6759251933545" r="9" fill="#f97316"/><circle cx="1019.8195775458589" cy="683.203207673505" r="9" fill="#f97316"/><circle cx="1057.9581590015441" cy="519.3614312354475" r="9" fill="#f97316"/><circle cx="907.5174965290353" cy="487.6154639851302" r="9" fill="#f97316"/><circle cx="902.8149374341592" cy="503.5691044572741" r="9" fill="#f97316"/><circle cx="1082.8752390518785" cy="566.565950922668" r="9" fill="#f97316"/><circle cx="902.9390340968966" cy="657.6211927551776" r="9" fill="#f97316"/><circle cx="1018.2785963527858" cy="520.1025401614606" r="9" fill="#f97316"/><circle cx="1083.594291171059" cy="656.8785810098052" r="9" fill="#f97316"/><circle cx="1099.7125160964206" cy="491.25890851020813" r="9" fill="#f97316"/><circle cx="951.746580353938" cy="665.3934858739376" r="9" fill="#f97316"/><circle cx="952.1148012438789" cy="522.2449386958033" r="9" fill="#f97316"/><circle cx="1056.3526710234582" cy="441.0977999586612" r="9" fill="#f97316"/><circle cx="1033.566368653439" cy="588.4964423254132" r="9" fill="#f97316"/><circle cx="951.3720499109477" cy="508.0844340287149" r="9" fill="#f97316"/><circle cx="1035.038178384304" cy="666.6774664539844" r="9" fill="#f97316"/><circle cx="1013.6321914261207" cy="609.467838415876" r="9" fill="#f97316"/><circle cx="1036.3164799027145" cy="559.3427886627614" r="9" fill="#f97316"/><circle cx="1014.6162933437154" cy="495.7897418551147" r="9" fill="#f97316"/><circle cx="916.5573092829436" cy="544.0575313381851" r="9" fill="#f97316"/><circle cx="999.166907498613" cy="457.60919626802206" r="9" fill="#f97316"/><circle cx="1023.1179563133046" cy="567.1546244062483" r="9" fill="#f97316"/><circle cx="992.6276764413342" cy="547.5462265405804" r="9" fill="#f97316"/><circle cx="1000.1056360360235" cy="540.0442695152014" r="9" fill="#f97316"/><circle cx="947.5002917749807" cy="561.7873230576515" r="9" fill="#f97316"/><circle cx="1005.5660408800468" cy="625.1214001141489" r="9" fill="#f97316"/><circle cx="970.0761431781575" cy="508.6641567014158" r="9" fill="#f97316"/><circle cx="1061.4815058857203" cy="458.8889097329229" r="9" fill="#f97316"/>
    
    
  <text x="1000" y="860" font-family="Helvetica, Arial, sans-serif" font-size="30" font-weight="bold" text-anchor="middle" fill="#1f2937">(c) Prezasi&#263;ena</text>
  <line x1="1180" y1="560" x2="1240" y2="560" stroke="#1f2937" stroke-width="7"/>
    <g transform="rotate(0 1240 560)">
    <path d="M 1229 549 L 1240 560 L 1229 571" fill="none"
          stroke="#1f2937" stroke-width="7" stroke-linecap="round" stroke-linejoin="round"/></g>
  
    <path d="M 1200 380 L 1200 742 Q 1200 760 1218 760
             L 1442 760 Q 1460 760 1460 742 L 1460 380"
          fill="none" stroke="#64748b" stroke-width="7"/>
    <rect x="1207" y="430" width="246" height="323" fill="#93c5fd" opacity="0.55"/>
    <circle cx="1301.7148782908916" cy="633.1013450957835" r="9" fill="#f97316"/><circle cx="1251.5190273942426" cy="478.23082849383354" r="9" fill="#f97316"/><circle cx="1434.3650429090485" cy="462.61132411658764" r="9" fill="#f97316"/><circle cx="1333.603304761462" cy="549.6609990019351" r="9" fill="#f97316"/><circle cx="1252.2594080604613" cy="498.4282318037003" r="9" fill="#f97316"/><circle cx="1432.4506395058706" cy="549.9602560233325" r="9" fill="#f97316"/><circle cx="1230.5258965753019" cy="611.7020790837705" r="9" fill="#f97316"/><circle cx="1369.730859783478" cy="655.0946876872331" r="9" fill="#f97316"/><circle cx="1333.8757703714073" cy="503.40079703368247" r="9" fill="#f97316"/><circle cx="1263.9005678901449" cy="682.4012371059507" r="9" fill="#f97316"/><circle cx="1427.3340481687337" cy="582.2280425485224" r="9" fill="#f97316"/><circle cx="1246.5303936665878" cy="630.3352046851069" r="9" fill="#f97316"/><circle cx="1328.8477260619402" cy="526.7239387240261" r="9" fill="#f97316"/><circle cx="1246.8585218181834" cy="576.2891550827771" r="9" fill="#f97316"/><circle cx="1432.9800260961056" cy="585.2485574316233" r="9" fill="#f97316"/><circle cx="1262.5151347741485" cy="504.8700909130275" r="9" fill="#f97316"/><circle cx="1426.4625573130324" cy="496.8937924131751" r="9" fill="#f97316"/><circle cx="1391.1583596486598" cy="643.2241484802216" r="9" fill="#f97316"/><circle cx="1349.914132536389" cy="441.4713932108134" r="9" fill="#f97316"/><circle cx="1315.625172348693" cy="697.9194633103907" r="9" fill="#f97316"/><circle cx="1224.2904851054773" cy="654.3551848456264" r="9" fill="#f97316"/><circle cx="1329.2174871843308" cy="595.785123128444" r="9" fill="#f97316"/><circle cx="1317.836004701443" cy="529.1940629016608" r="9" fill="#f97316"/><circle cx="1363.2434151675552" cy="680.8361865393817" r="9" fill="#f97316"/><circle cx="1281.128142572008" cy="541.383559089154" r="9" fill="#f97316"/><circle cx="1224.8050433797762" cy="518.594373119995" r="9" fill="#f97316"/>
    <path d="M 1260 753 Q 1330 690 1400 753 Z" fill="#ea580c"/>
    <line x1="1330" y1="310" x2="1330" y2="560" stroke="#92400e" stroke-width="6"/>
      <g fill="#c2410c" stroke="#7c2d12" stroke-width="2">
        <rect x="1304" y="540" width="24" height="24" transform="rotate(45 1316 552)"/>
        <rect x="1332" y="552" width="22" height="22" transform="rotate(45 1343 563)"/>
        <rect x="1318" y="566" width="26" height="26" transform="rotate(45 1331 579)"/>
      </g>
  <text x="1330" y="860" font-family="Helvetica, Arial, sans-serif" font-size="30" font-weight="bold" text-anchor="middle" fill="#1f2937">(d) Nastaju kristali</text>
  <text x="1330" y="200" font-family="Helvetica, Arial, sans-serif" font-size="30" font-weight="bold" text-anchor="middle" fill="#4f46e5">Dodaj po&#269;etni kristal</text>
  <line x1="1330" y1="225" x2="1330" y2="330" stroke="#4f46e5" stroke-width="6"/>
    <g transform="rotate(90 1330 330)">
    <path d="M 1319 319 L 1330 330 L 1319 341" fill="none"
          stroke="#4f46e5" stroke-width="6" stroke-linecap="round" stroke-linejoin="round"/></g></svg>