<svg width="1500" height="1000" viewBox="0 0 1500 1000" xmlns="http://www.w3.org/2000/svg">
  <defs>
    <linearGradient id="sky" x1="0" y1="0" x2="0" y2="1">
      <stop offset="0" stop-color="#dbeafe"/><stop offset="1" stop-color="#f0f9ff"/>
    </linearGradient>
  </defs>
  <rect width="1500" height="1000" fill="url(#sky)"/>
  <line x1="0" y1="200" x2="1500" y2="200" stroke="#bfdbfe" stroke-width="1.5"/><line x1="0" y1="330" x2="1500" y2="330" stroke="#bfdbfe" stroke-width="1.5"/><line x1="0" y1="460" x2="1500" y2="460" stroke="#bfdbfe" stroke-width="1.5"/><line x1="0" y1="590" x2="1500" y2="590" stroke="#bfdbfe" stroke-width="1.5"/><line x1="0" y1="720" x2="1500" y2="720" stroke="#bfdbfe" stroke-width="1.5"/>
  <rect y="880" width="1500" height="120" fill="#86efac"/>
  <rect y="880" width="1500" height="12" fill="#4ade80"/>
  
    <path d="M 86 880 L 87.5 843.45
             L 92.5 843.45 L 94 880 Z"
          fill="#f1f5f9" stroke="#94a3b8" stroke-width="2.5"/>
    <g transform="rotate(0 90 843.45)">
      <path d="M 90 843.45 C 88.4649 837.3096, 88.77192 831.9367500000001, 90 828.099
               C 90.92106 831.9367500000001, 90.92106 837.3096, 90 843.45 Z"
            fill="#f8fafc" stroke="#94a3b8" stroke-width="2.5"/></g><g transform="rotate(120 90 843.45)">
      <path d="M 90 843.45 C 88.4649 837.3096, 88.77192 831.9367500000001, 90 828.099
               C 90.92106 831.9367500000001, 90.92106 837.3096, 90 843.45 Z"
            fill="#f8fafc" stroke="#94a3b8" stroke-width="2.5"/></g><g transform="rotate(240 90 843.45)">
      <path d="M 90 843.45 C 88.4649 837.3096, 88.77192 831.9367500000001, 90 828.099
               C 90.92106 831.9367500000001, 90.92106 837.3096, 90 843.45 Z"
            fill="#f8fafc" stroke="#94a3b8" stroke-width="2.5"/></g>
    <circle cx="90" cy="843.45" r="4" fill="#cbd5e1" stroke="#94a3b8" stroke-width="2"/>
    <rect x="30" y="756.099" width="120" height="56" rx="10"
          fill="#4f46e5"/>
    <text x="90" y="780.099" text-anchor="middle" font-family="Helvetica, Arial, sans-serif"
          font-size="21" font-weight="bold" fill="#ffffff">17 m</text>
    <text x="90" y="802.099" text-anchor="middle" font-family="Helvetica, Arial, sans-serif"
          font-size="19" fill="#e0e7ff">75 kW</text>

    <path d="M 211 880 L 212.5 815.5
             L 217.5 815.5 L 219 880 Z"
          fill="#f1f5f9" stroke="#94a3b8" stroke-width="2.5"/>
    <g transform="rotate(0 215 815.5)">
      <path d="M 215 815.5 C 212.291 804.664, 212.8328 795.1825, 215 788.41
               C 216.6254 795.1825, 216.6254 804.664, 215 815.5 Z"
            fill="#f8fafc" stroke="#94a3b8" stroke-width="2.5"/></g><g transform="rotate(120 215 815.5)">
      <path d="M 215 815.5 C 212.291 804.664, 212.8328 795.1825, 215 788.41
               C 216.6254 795.1825, 216.6254 804.664, 215 815.5 Z"
            fill="#f8fafc" stroke="#94a3b8" stroke-width="2.5"/></g><g transform="rotate(240 215 815.5)">
      <path d="M 215 815.5 C 212.291 804.664, 212.8328 795.1825, 215 788.41
               C 216.6254 795.1825, 216.6254 804.664, 215 815.5 Z"
            fill="#f8fafc" stroke="#94a3b8" stroke-width="2.5"/></g>
    <circle cx="215" cy="815.5" r="4" fill="#cbd5e1" stroke="#94a3b8" stroke-width="2"/>
    <rect x="155" y="716.41" width="120" height="56" rx="10"
          fill="#4f46e5"/>
    <text x="215" y="740.41" text-anchor="middle" font-family="Helvetica, Arial, sans-serif"
          font-size="21" font-weight="bold" fill="#ffffff">30 m</text>
    <text x="215" y="762.41" text-anchor="middle" font-family="Helvetica, Arial, sans-serif"
          font-size="19" fill="#e0e7ff">300 kW</text>

    <path d="M 341 880 L 342.5 772.5
             L 347.5 772.5 L 349 880 Z"
          fill="#f1f5f9" stroke="#94a3b8" stroke-width="2.5"/>
    <g transform="rotate(0 345 772.5)">
      <path d="M 345 772.5 C 340.485 754.44, 341.388 738.6375, 345 727.35
               C 347.709 738.6375, 347.709 754.44, 345 772.5 Z"
            fill="#f8fafc" stroke="#94a3b8" stroke-width="2.5"/></g><g transform="rotate(120 345 772.5)">
      <path d="M 345 772.5 C 340.485 754.44, 341.388 738.6375, 345 727.35
               C 347.709 738.6375, 347.709 754.44, 345 772.5 Z"
            fill="#f8fafc" stroke="#94a3b8" stroke-width="2.5"/></g><g transform="rotate(240 345 772.5)">
      <path d="M 345 772.5 C 340.485 754.44, 341.388 738.6375, 345 727.35
               C 347.709 738.6375, 347.709 754.44, 345 772.5 Z"
            fill="#f8fafc" stroke="#94a3b8" stroke-width="2.5"/></g>
    <circle cx="345" cy="772.5" r="4" fill="#cbd5e1" stroke="#94a3b8" stroke-width="2"/>
    <rect x="285" y="655.35" width="120" height="56" rx="10"
          fill="#4f46e5"/>
    <text x="345" y="679.35" text-anchor="middle" font-family="Helvetica, Arial, sans-serif"
          font-size="21" font-weight="bold" fill="#ffffff">50 m</text>
    <text x="345" y="701.35" text-anchor="middle" font-family="Helvetica, Arial, sans-serif"
          font-size="19" fill="#e0e7ff">750 kW</text>

    <path d="M 474.7325 880 L 477.5 729.5
             L 482.5 729.5 L 485.2675 880 Z"
          fill="#f1f5f9" stroke="#94a3b8" stroke-width="2.5"/>
    <g transform="rotate(0 480 729.5)">
      <path d="M 480 729.5 C 473.679 704.216, 474.9432 682.0925, 480 666.29
               C 483.7926 682.0925, 483.7926 704.216, 480 729.5 Z"
            fill="#f8fafc" stroke="#94a3b8" stroke-width="2.5"/></g><g transform="rotate(120 480 729.5)">
      <path d="M 480 729.5 C 473.679 704.216, 474.9432 682.0925, 480 666.29
               C 483.7926 682.0925, 483.7926 704.216, 480 729.5 Z"
            fill="#f8fafc" stroke="#94a3b8" stroke-width="2.5"/></g><g transform="rotate(240 480 729.5)">
      <path d="M 480 729.5 C 473.679 704.216, 474.9432 682.0925, 480 666.29
               C 483.7926 682.0925, 483.7926 704.216, 480 729.5 Z"
            fill="#f8fafc" stroke="#94a3b8" stroke-width="2.5"/></g>
    <circle cx="480" cy="729.5" r="5.2675" fill="#cbd5e1" stroke="#94a3b8" stroke-width="2"/>
    <rect x="420" y="594.29" width="120" height="56" rx="10"
          fill="#4f46e5"/>
    <text x="480" y="618.29" text-anchor="middle" font-family="Helvetica, Arial, sans-serif"
          font-size="21" font-weight="bold" fill="#ffffff">70 m</text>
    <text x="480" y="640.29" text-anchor="middle" font-family="Helvetica, Arial, sans-serif"
          font-size="19" fill="#e0e7ff">1 500 kW</text>

    <path d="M 613.98 880 L 617.248 708
             L 622.752 708 L 626.02 880 Z"
          fill="#f1f5f9" stroke="#94a3b8" stroke-width="2.5"/>
    <g transform="rotate(0 620 708)">
      <path d="M 620 708 C 612.776 679.104, 614.2208 653.82, 620 635.76
               C 624.3344 653.82, 624.3344 679.104, 620 708 Z"
            fill="#f8fafc" stroke="#94a3b8" stroke-width="2.5"/></g><g transform="rotate(120 620 708)">
      <path d="M 620 708 C 612.776 679.104, 614.2208 653.82, 620 635.76
               C 624.3344 653.82, 624.3344 679.104, 620 708 Z"
            fill="#f8fafc" stroke="#94a3b8" stroke-width="2.5"/></g><g transform="rotate(240 620 708)">
      <path d="M 620 708 C 612.776 679.104, 614.2208 653.82, 620 635.76
               C 624.3344 653.82, 624.3344 679.104, 620 708 Z"
            fill="#f8fafc" stroke="#94a3b8" stroke-width="2.5"/></g>
    <circle cx="620" cy="708" r="6.0200000000000005" fill="#cbd5e1" stroke="#94a3b8" stroke-width="2"/>
    <rect x="560" y="563.76" width="120" height="56" rx="10"
          fill="#4f46e5"/>
    <text x="620" y="587.76" text-anchor="middle" font-family="Helvetica, Arial, sans-serif"
          font-size="21" font-weight="bold" fill="#ffffff">80 m</text>
    <text x="620" y="609.76" text-anchor="middle" font-family="Helvetica, Arial, sans-serif"
          font-size="19" fill="#e0e7ff">1 800 kW</text>

    <path d="M 762.475 880 L 766.56 665
             L 773.44 665 L 777.525 880 Z"
          fill="#f1f5f9" stroke="#94a3b8" stroke-width="2.5"/>
    <g transform="rotate(0 770 665)">
      <path d="M 770 665 C 760.97 628.88, 762.776 597.275, 770 574.7
               C 775.418 597.275, 775.418 628.88, 770 665 Z"
            fill="#f8fafc" stroke="#94a3b8" stroke-width="2.5"/></g><g transform="rotate(120 770 665)">
      <path d="M 770 665 C 760.97 628.88, 762.776 597.275, 770 574.7
               C 775.418 597.275, 775.418 628.88, 770 665 Z"
            fill="#f8fafc" stroke="#94a3b8" stroke-width="2.5"/></g><g transform="rotate(240 770 665)">
      <path d="M 770 665 C 760.97 628.88, 762.776 597.275, 770 574.7
               C 775.418 597.275, 775.418 628.88, 770 665 Z"
            fill="#f8fafc" stroke="#94a3b8" stroke-width="2.5"/></g>
    <circle cx="770" cy="665" r="7.525" fill="#cbd5e1" stroke="#94a3b8" stroke-width="2"/>
    <rect x="710" y="502.70000000000005" width="120" height="56" rx="10"
          fill="#4f46e5"/>
    <text x="770" y="526.7" text-anchor="middle" font-family="Helvetica, Arial, sans-serif"
          font-size="21" font-weight="bold" fill="#ffffff">100 m</text>
    <text x="770" y="548.7" text-anchor="middle" font-family="Helvetica, Arial, sans-serif"
          font-size="19" fill="#e0e7ff">3 000 kW</text>

    <path d="M 925.59375 880 L 930.7 611.25
             L 939.3 611.25 L 944.40625 880 Z"
          fill="#f1f5f9" stroke="#94a3b8" stroke-width="2.5"/>
    <g transform="rotate(0 935 611.25)">
      <path d="M 935 611.25 C 923.7125 566.1, 925.97 526.59375, 935 498.375
               C 941.7725 526.59375, 941.7725 566.1, 935 611.25 Z"
            fill="#f8fafc" stroke="#94a3b8" stroke-width="2.5"/></g><g transform="rotate(120 935 611.25)">
      <path d="M 935 611.25 C 923.7125 566.1, 925.97 526.59375, 935 498.375
               C 941.7725 526.59375, 941.7725 566.1, 935 611.25 Z"
            fill="#f8fafc" stroke="#94a3b8" stroke-width="2.5"/></g><g transform="rotate(240 935 611.25)">
      <path d="M 935 611.25 C 923.7125 566.1, 925.97 526.59375, 935 498.375
               C 941.7725 526.59375, 941.7725 566.1, 935 611.25 Z"
            fill="#f8fafc" stroke="#94a3b8" stroke-width="2.5"/></g>
    <circle cx="935" cy="611.25" r="9.406250000000002" fill="#cbd5e1" stroke="#94a3b8" stroke-width="2"/>
    <rect x="875" y="426.375" width="120" height="56" rx="10"
          fill="#4f46e5"/>
    <text x="935" y="450.375" text-anchor="middle" font-family="Helvetica, Arial, sans-serif"
          font-size="21" font-weight="bold" fill="#ffffff">125 m</text>
    <text x="935" y="472.375" text-anchor="middle" font-family="Helvetica, Arial, sans-serif"
          font-size="19" fill="#e0e7ff">5 000 kW</text>

    <path d="M 1103.7125 880 L 1109.84 557.5
             L 1120.16 557.5 L 1126.2875 880 Z"
          fill="#f1f5f9" stroke="#94a3b8" stroke-width="2.5"/>
    <g transform="rotate(0 1115 557.5)">
      <path d="M 1115 557.5 C 1101.455 503.32, 1104.164 455.9125, 1115 422.05
               C 1123.127 455.9125, 1123.127 503.32, 1115 557.5 Z"
            fill="#f8fafc" stroke="#94a3b8" stroke-width="2.5"/></g><g transform="rotate(120 1115 557.5)">
      <path d="M 1115 557.5 C 1101.455 503.32, 1104.164 455.9125, 1115 422.05
               C 1123.127 455.9125, 1123.127 503.32, 1115 557.5 Z"
            fill="#f8fafc" stroke="#94a3b8" stroke-width="2.5"/></g><g transform="rotate(240 1115 557.5)">
      <path d="M 1115 557.5 C 1101.455 503.32, 1104.164 455.9125, 1115 422.05
               C 1123.127 455.9125, 1123.127 503.32, 1115 557.5 Z"
            fill="#f8fafc" stroke="#94a3b8" stroke-width="2.5"/></g>
    <circle cx="1115" cy="557.5" r="11.287500000000001" fill="#cbd5e1" stroke="#94a3b8" stroke-width="2"/>
    <rect x="1055" y="350.05" width="120" height="56" rx="10"
          fill="#16a34a"/>
    <text x="1115" y="374.05" text-anchor="middle" font-family="Helvetica, Arial, sans-serif"
          font-size="21" font-weight="bold" fill="#ffffff">150 m</text>
    <text x="1115" y="396.05" text-anchor="middle" font-family="Helvetica, Arial, sans-serif"
          font-size="19" fill="#e0e7ff">10 000 kW</text>

    <path d="M 1276.1875 880 L 1286.4 342.5
             L 1303.6 342.5 L 1313.8125 880 Z"
          fill="#f1f5f9" stroke="#94a3b8" stroke-width="2.5"/>
    <g transform="rotate(0 1295 342.5)">
      <path d="M 1295 342.5 C 1272.425 252.2, 1276.94 173.1875, 1295 116.75
               C 1308.545 173.1875, 1308.545 252.2, 1295 342.5 Z"
            fill="#f8fafc" stroke="#94a3b8" stroke-width="2.5"/></g><g transform="rotate(120 1295 342.5)">
      <path d="M 1295 342.5 C 1272.425 252.2, 1276.94 173.1875, 1295 116.75
               C 1308.545 173.1875, 1308.545 252.2, 1295 342.5 Z"
            fill="#f8fafc" stroke="#94a3b8" stroke-width="2.5"/></g><g transform="rotate(240 1295 342.5)">
      <path d="M 1295 342.5 C 1272.425 252.2, 1276.94 173.1875, 1295 116.75
               C 1308.545 173.1875, 1308.545 252.2, 1295 342.5 Z"
            fill="#f8fafc" stroke="#94a3b8" stroke-width="2.5"/></g>
    <circle cx="1295" cy="342.5" r="18.812500000000004" fill="#cbd5e1" stroke="#94a3b8" stroke-width="2"/>
    <rect x="1235" y="44.75" width="120" height="56" rx="10"
          fill="#16a34a"/>
    <text x="1295" y="68.75" text-anchor="middle" font-family="Helvetica, Arial, sans-serif"
          font-size="21" font-weight="bold" fill="#ffffff">250 m</text>
    <text x="1295" y="90.75" text-anchor="middle" font-family="Helvetica, Arial, sans-serif"
          font-size="19" fill="#e0e7ff">20 000 kW</text>
</svg>